<?xml version="1.0" encoding="utf-8"?>
<!-- Generator: Adobe Illustrator 18.0.0, SVG Export Plug-In . SVG Version: 6.00 Build 0)  -->
<!DOCTYPE svg PUBLIC "-//W3C//DTD SVG 1.1//EN" "http://www.w3.org/Graphics/SVG/1.1/DTD/svg11.dtd">
<svg version="1.1" id="Layer_1" xmlns="http://www.w3.org/2000/svg" xmlns:xlink="http://www.w3.org/1999/xlink" x="0px" y="0px"
	 viewBox="0 0 1400 980" style="enable-background:new 0 0 1400 980;" xml:space="preserve">
<style type="text/css">
	.st0{fill:#3B8ED3;}
	.st1{fill:#3BA7D3;}
	.st2{fill:#36389C;}
	.st3{fill:#4074D8;}
	.st4{fill:#5451BA;}
	.st5{fill:#B4D7FF;}
	.st6{fill:#E6E7E8;}
	.st7{fill:#FFFFFF;}
	.st8{fill:#FF9DB8;}
	.st9{fill:#A0BEFF;}
	.st10{fill:#FFCFCC;}
	.st11{fill:#4042BA;}
	.st12{fill:#6D60BA;}
	.st13{fill:#4060C9;}
	.st14{fill:#FFB6CC;}
</style>
<path class="st0" d="M1212,507c-7,11-17,16-26,25c-7,8-11,16-18,24c-12,12-29,8-33-6c-8-26-8-66-33-77c-2-1-6,4-9,5c-6,1-13-1-18,1
	c-23,10-45,17-69,24c-10,3-17,11-27,17c-21,12-42,20-62,34c-27,19-46,40-73,58c-37,25-70,44-102,73c-8,8-13,17-22,23
	c-17,12-33,21-50,34c-29,21-61,23-86,10c-12-7-26-20-27-37c-3-40,1-80-2-120c0-3-6-4-5-9c-10,0-20-2-30,1c-153,37-256,151-390,226
	c-9,5-28,14-31,4c-8-30,5-64-14-90c-30.6,7-58.5,20.7-85,37.3V980h1400V345.3C1323.4,381.4,1262.9,435.6,1212,507z"/>
<path class="st1" d="M0,0v764.3C26.5,747.7,54.4,734,85,727c19,26,6,60,14,90c3,10,22,1,31-4c134-75,237-189,390-226c10-3,20-1,30-1
	c-1,5,5,6,5,9c3,40-1,80,2,120c1,17,15,30,27,37c25,13,57,11,86-10c17-13,33-22,50-34c9-6,14-15,22-23c32-29,65-48,102-73
	c27-18,46-39,73-58c20-14,41-22,62-34c10-6,17-14,27-17c24-7,46-14,69-24c5-2,12,0,18-1c3-1,7-6,9-5c25,11,25,51,33,77
	c4,14,21,18,33,6c7-8,11-16,18-24c9-9,19-14,26-25c50.9-71.4,111.4-125.6,188-161.7V0H0z"/>
<g>
	<polygon class="st2" points="282.1,1016.5 248.5,1003.5 360.8,714.3 637.5,714.3 745.9,1003.7 712.1,1016.3 612.5,750.3 
		385.4,750.3 	"/>
</g>
<g>
	<rect x="634.4" y="710.9" class="st3" width="29.3" height="38.9"/>
	<rect x="275" y="686.3" class="st4" width="452" height="40.9"/>
	<rect x="172.7" y="194.3" class="st4" width="642.9" height="492"/>
	<rect x="193.3" y="216.9" class="st3" width="601.8" height="446.8"/>
	<path class="st5" d="M795.1,216.9c0,0,27.9,380.5-80.1,514.7c-12.8,15.8-560-58-560-58c94.2-162.9,31.1-338.6,38.2-456.7H795.1z"/>
	<path class="st6" d="M795.1,216.9c0,0-3.4,355.4-164.1,494c-15.4,13.3-510-64.8-510-64.8c94.2-162.9,65.2-311.1,72.3-429.2H795.1z"
		/>
	<path class="st7" d="M795.1,216.9c0,0-52,418.5-203.5,447.2C383.1,703.6,100,608.2,100,608.2c94.2-162.9,86.2-273.2,93.3-391.4
		H795.1z"/>
	<rect x="297" y="179.7" class="st4" width="32" height="52.7"/>
	<rect x="649" y="179.7" class="st4" width="32" height="52.7"/>
	<g>
		<polygon class="st4" points="632.9,543.6 239.8,535.4 270.5,324.4 279.5,325.6 250.2,526.6 633.1,534.6 		"/>
	</g>
	<g>
		<polygon class="st3" points="277.8,482.3 272.2,471.7 313.3,449.8 329.1,459.8 458.7,383.3 477.2,399.4 669.7,273 676.3,283 
			476.2,414.4 457.4,398 328.9,473.9 312.7,463.7 		"/>
	</g>
	<polygon class="st3" points="639.6,266.3 695.1,266.3 673,317 	"/>
	<g>
		
			<rect x="636.8" y="333.1" transform="matrix(0.9844 0.1758 -0.1758 0.9844 85.5062 -105.5131)" class="st8" width="3" height="193.5"/>
	</g>
	<g>
		
			<rect x="543.7" y="385.9" transform="matrix(0.9844 0.1758 -0.1758 0.9844 88.6585 -88.7404)" class="st8" width="3" height="140.3"/>
	</g>
	<g>
		
			<rect x="452.6" y="416.1" transform="matrix(0.9844 0.1758 -0.1758 0.9844 89.8769 -72.4931)" class="st8" width="3" height="109.8"/>
	</g>
	<g>
		
			<rect x="359.9" y="464.2" transform="matrix(0.9844 0.1758 -0.1758 0.9844 92.6233 -55.8306)" class="st8" width="3" height="61.4"/>
	</g>
	<g>
		
			<rect x="269.8" y="497.3" transform="matrix(0.9653 0.261 -0.261 0.9653 142.9034 -53.0881)" class="st8" width="3" height="28.3"/>
	</g>
	<rect x="339" y="710.9" class="st3" width="29.3" height="38.9"/>
</g>
<g>
	<polygon class="st9" points="1084.2,672.2 1213.1,646.1 1231.1,794.6 1128,817.1 	"/>
	<path class="st2" d="M917.5,860.3c0,0-12.6,50.7,0,119.7H1156c0,0-1.1-90.3-19.5-119.7H917.5z"/>
	<path class="st8" d="M791.6,366.1c0,0-5.3-55.4-35.9-48.5l15.1,53.9L791.6,366.1z"/>
	<path class="st10" d="M1133,776l48.1-167.8c-20.2,5.1-39.4,15.5-58,27.1l-22.5,117.9l14.2,9.9L1141,846c42,4,57-48,57-48l-48.7,15
		C1147.6,781,1133,776,1133,776z"/>
	<path class="st8" d="M1185,594.5l13-28.5l-45-136v0c6.7-16.3-0.5-34.9-16.3-42.5l-33.8-16.1l-2.3,208.5l29.5,19l-7,36.4
		c18.6-11.7,37.8-22.1,58-27.1L1185,594.5z"/>
	<path class="st2" d="M1102.6,402.1l-2,177.9l20.9,13.4c6-27.9,18.3-54.5,23.6-83.4C1152.5,471,1122.8,437.2,1102.6,402.1z"/>
	<path class="st11" d="M1153,430l1.1-2.8c6.1-14.7-0.4-31.6-14.8-38.4l-36.5-17.3l-0.3,30.7c20.3,35.1,49.9,68.9,42.5,107.9
		c-5.3,29-17.6,55.6-23.6,83.4l6.2,4c3.4-3.1,7.2-5.6,11.4-7.4c14.6-6.4,31,0.6,45.9,4.9l0.1-0.4l13-28.5L1153,430z"/>
	<path class="st11" d="M888,532c6.6-33.1,21.5-61.4,32.6-91.7l-1.8-53.3l-35.9,18.3c-13.2,6.7-19.4,22.1-14.8,36.1l2.9,8.6l-28,139
		l37.7,28.2c1.3-14.5,3.1-29.1,5.3-44.2C888,559,885,546,888,532z"/>
	<path class="st2" d="M888,532c-3,14,0,27-2,41c-2.2,15-4,29.7-5.3,44.2l27.9,20.8L922,481l-1.4-40.7
		C909.5,470.6,894.7,498.9,888,532z"/>
	<path class="st12" d="M1040.4,153.7c0,0-28-24.7-75.3-14c-47.3,10.7-35.3,124.7-35.3,124.7s-67.3,54.7,38.7,131.3H1073
		c0,0,121.3-78.7,32-137.3C1105,258.3,1134.4,103,1040.4,153.7z"/>
	<path class="st12" d="M1105,258.3c0,0,29.3-155.3-64.7-104.7c0,0-28-24.7-75.3-14c-47.3,10.7-35.3,124.7-35.3,124.7
		s-27.3,22.2-19.7,58.2c0.4-0.2,0.7-0.3,1.1-0.5c20-8,35,8,46,27c1,2,4-2,6-4c16-25,28-55,56-65c14-5,38-8,44,4c7,13-13,34-2,51
		c2,3,9,0,13-2c15-7,30-22,46-13c6.2,3.1,9.2,11,8.8,19C1142.9,313.8,1144.4,284.1,1105,258.3z"/>
	<path class="st4" d="M1120,320c-16-9-31,6-46,13c-4,2-11,5-13,2c-11-17,9-38,2-51c-6-12-30-9-44-4c-28,10-40,40-56,65c-2,2-5,6-6,4
		c-11-19-26-35-46-27c-0.4,0.1-0.7,0.3-1.1,0.5c4.3,20.5,20,45.4,58.4,73.2H1073c0,0,38-24.7,55.8-56.7
		C1129.2,331,1126.2,323.1,1120,320z"/>
	<path class="st11" d="M998.2,305L985,373l-66.2,14L889,511l44.3,72.7l9.9,95.3l-34.6,177c75.4,38.5,155,36.1,238.2,0l-56.6-186
		l-2.2-91.5l40-83.5l-25.1-123.5l-43.6,0.5l-13-54L998.2,305z"/>
	<path class="st2" d="M1016,494c15,3,29,1,45-3c13-2,24-9,37-7c-7.5-36.8-9.5-75-16.9-112.3l-21.9,0.3l-13-54l-48-13L985,373l-38,8
		c0,30.9,0,61.7,0,93C971,476,992,489,1016,494z"/>
	<path class="st11" d="M948,509c21-7,43,11,63,21c11,6,25,15,34,11c19.7-9.9,51.1-36.3,63.5-5.3L1128,495l-25.1-123.5l-21.8,0.3
		c7.5,37.3,9.4,75.5,16.9,112.3c-13-2-24,5-37,7c-16,4-30,6-45,3c-24-5-45-18-69-20c0-31.2,0-62,0-93l-28.2,6L889,511l18.8,30.9
		C916,526.7,933,514,948,509z"/>
	<path class="st2" d="M1029,569c19.6,5.5,39.2,20.2,59.3,21l-0.3-11.4l20.5-42.8c-12.4-31-43.8-4.6-63.5,5.3c-9,4-23-5-34-11
		c-20-10-42-28-63-21c-15,5-32,17.7-40.2,32.9l25.5,41.9l0,0.4c15.4-7,30.2-16.5,46.6-21.1C997,558,1013,564,1029,569z"/>
	<path class="st2" d="M987,780c38.6-36.6,73.3-71.3,103-116.6l-0.8-31.5c-9,10.5-19.5,19.5-31.3,28.1c-40.5,28.9-87,49.5-126.1,76.9
		L908.6,856c8.8,4.5,17.6,8.4,26.5,11.8C945.4,835,961.6,804.3,987,780z"/>
	<path class="st7" d="M979.5,392l43.8,85l41.5-86.3C1037,404.6,1005.6,408.7,979.5,392z"/>
	<path class="st10" d="M1059.2,372l-13-54l-48-13L985,373l-13.8,2.9l8.3,16.1c26.2,16.7,57.6,12.6,85.3-1.3l9.1-18.8L1059.2,372z"/>
	<path class="st8" d="M1031,374c9.1-2.3,17.9-9.4,24.3-18.1l-9.1-37.9l-48-13l-11.7,60.4C1000,374.1,1016.1,378.2,1031,374z"/>
	<path class="st10" d="M1059.2,372l-3.9-16.1c-6.4,8.7-15.2,15.8-24.3,18.1c-15,4.2-31.1,0.1-44.5-8.6L985,373l-13.8,2.9l8.3,16.1
		c26.2,16.7,57.6,12.6,85.3-1.3l9.1-18.8L1059.2,372z"/>
	<g>
		<polygon class="st3" points="987,468 960.1,487.8 1023.2,565 1066,508 1055,466 1106,462 1091.4,371.6 1073.8,371.8 1023.2,477 
			971.2,375.9 940.3,382.5 932,454 		"/>
	</g>
	<g>
		<path class="st13" d="M971.2,375.9l-30.9,6.5l-2.2,18.6c18.1,5.3,36.3,9.9,54.2,15.9L971.2,375.9z"/>
		<path class="st3" d="M1106,462l-12.7-78.1c-12.4,7.3-24.6,14.8-36.4,23l-33.7,70.1l-30.9-60c-17.9-6-36.1-10.6-54.2-15.9L932,454
			l55,14l-27,19.8l63.2,77.2l42.8-57l-11-42L1106,462z"/>
		<path class="st13" d="M1091.4,371.6l-17.5,0.2l-16.9,35c11.8-8.1,24-15.7,36.4-23L1091.4,371.6z"/>
	</g>
	<path class="st10" d="M1020.8,354.3L1020.8,354.3c-14.5,0-28-7.2-36.1-19.3l-32.7-49c-1.9-3.8-1.9-8.2-0.2-12l8.2-17.9v-73.7h124.1
		v73.7l0,0c6.2,3.5,8.9,11.1,6.1,17.7l-31.4,57.9C1051.4,345.6,1036.7,354.3,1020.8,354.3z"/>
	<path class="st8" d="M1054.1,182.4h-15.2c-1.4,16.5-5.1,33-7.8,49.6C1046.8,220.9,1054,201.2,1054.1,182.4z"/>
	<path class="st8" d="M1036.2,182.4h-76.1v73.7l-2.1,4.7c2.4-0.6,4.8-1.5,7.1-2.8C995.6,241.5,1026.8,216.1,1036.2,182.4z"/>
	<path class="st10" d="M1084.2,256.1L1084.2,256.1v-73.7h-30c-0.2,18.7-7.3,38.4-23.1,49.6c2.8-16.5,6.5-33,7.8-49.6h-2.7
		c-9.4,33.7-40.6,59-71.2,75.6c-2.3,1.3-4.7,2.2-7.1,2.8l-6,13.2c-1.7,3.8-1.7,8.2,0.2,12l32.7,49c8,12.1,21.6,19.3,36.1,19.3
		c15.9,0,30.5-8.7,38.1-22.7l31.4-57.9C1093,267.2,1090.4,259.6,1084.2,256.1z"/>
	<path class="st12" d="M1046,182.4c0,0-25.9,43.6-86,60.6v-60.6h124.1V247C1084.2,247,1050,219.9,1046,182.4z"/>
	<path class="st8" d="M894.9,581.4c-2.6,21.1-7.3,41.7-20.9,59.6c-3.5,4.9-7.4,9.2-11.7,12.8c22.4,17.5,45.9,16,46.3-15.8
		C908.8,625.9,903.3,605.3,894.9,581.4z"/>
	<path class="st10" d="M874,641c13.6-17.9,18.3-38.5,20.9-59.6C870.3,510.6,821,410,821,410l-14.6-33.5c-3.9-9-12.4-15.2-22.1-16.2
		L752,357l-38-21.3c-18-37-33-22-33-22l40.9,62.1c8.3,12.7,21.7,21.2,36.8,23.3l28.4,4c0,0,22,160,45,211
		c7.8,17.2,18.9,31,30.3,39.8C866.7,650.2,870.6,645.9,874,641z"/>
	<path class="st12" d="M1046.4,179.7c0,0,2.5,46-28.4,52.7L1046.4,179.7z"/>
	<path class="st10" d="M943,247l4,46C947,293,910,260,943,247z"/>
	<path class="st10" d="M1096.5,243.3l-2.8,46C1094.9,289.9,1131,249.1,1096.5,243.3z"/>
	<path class="st8" d="M1018,260.8c0,0-7.8,42.2,5.3,35.5C1036.4,289.7,1026.2,250,1018,260.8z"/>
	<polygon class="st9" points="1255,653.8 1231.1,794.6 1215.4,665 	"/>
	<polygon class="st6" points="1243,653.8 1229,768 1214.7,658.9 	"/>
	<polygon class="st5" points="1227.7,762.3 1235.2,646.1 1214.1,653.8 	"/>
	<polygon class="st3" points="1201.4,748 1227,736.3 1229.4,764.9 1208.7,773.6 	"/>
	<ellipse class="st14" cx="1060.2" cy="272" rx="13.8" ry="5.6"/>
	<ellipse class="st14" cx="979.5" cy="272" rx="13.8" ry="5.6"/>
</g>
</svg>
