<svg xmlns="http://www.w3.org/2000/svg" height="2829.333" width="2829.333"><path d="M926.176 228.513c-6.446 0-11.554-7.854-19.02-8.213-7.194-.358-14.524.066-21.741.066-7.24 0-13.412-.082-19.633 2.053-7.454 2.542-14.454 5.23-21.741 8.147-3.784 1.531-9.324 1.45-10.546 5.98-.963 3.78 2.242 7.528 3.059 10.998 1.268 5.491 3.026 12.889 7.25 17.142 1.993 1.988 4.791 2.232 7.023 3.861 1.962 1.45 3.422 3.846 5.28 5.459 9.778 8.505 1.758 9.613-5.755 14.99.805 5.084 6.288 4.791 10.32 5.166.611 4.595-5.416 9.744-7.883 13.198-1.461 2.053-8.62 8.408-8.486 10.933.215 3.78 10.797 3.683 14.059 5.394 5.018 2.623 7.296 7.61 5.437 13.72-1.574 5.197-6.74 3.861-8.496 7.804-2.084 4.71 1.19 12.123 3.603 15.903 4.962 7.74 11.792 13.98 16.223 21.704 2.232 3.813 5.947 12.107 10.218 13.866 4.849 1.972 11.645 1.174 16.507 3.031 9.54 3.634 15.42 16.148 19.51 24.523 1.052 2.15 2.072 4.774 4.099 6.257 1.585 1.157 5.496 1.157 6.3 1.776 5.054 4.057.26 8.603-3.467 13.736-3.76 5.181-9.087 9.907-15.68 10.998-1.574.245-4.295-.081-7.195-.44-4.575-.537-9.64-1.091-11.44.734-2.166 2.183-.419 12.807-.419 15.886 0 5.133 1.097 11.488-.534 16.376-1.46 4.383-5.596 6.876-7.613 10.673-3.137 5.947-5.041 12.937-7.487 19.227-3.91 10.07-9.972 12.416-19.022 16.913-4.17 2.102-6.73 4.302-11.489 4.84-7.16.814-12.79 1.564-19.144 5.311-6.436 3.797-5.462 6.73-5.393 13.671.067 6.453-1.574 10.233-2.868 16.278-1.142 5.524.556 9.239-1.892 14.257-1.461 2.933.023 3.601-3.17 5.003-2.277.977-8.487-.163-11.09-.212-5.826-.098-10.844 1.352-16.306 3.324-2.025.717-6.842 2.623-8.372 4.073-3.409 3.275-.883 2.053-2.436 6.127-1.823 4.92-4.394 11.015-2.933 16.522 1.631 6.029 8.713 6.778 8.488 13.361-.285 8.327-13.143 16.523-19.226 19.863-8.77 4.807-16.735 9.434-24.529 15.626-7.148 5.687-15.486 12.318-16.245 21.671-.489 5.98-3.275 8.408-6.185 13.606-2.923 5.246-4.884 11.145-8 16.294-4.917 8.18-13.913 15.267-21.16 21.15-3.98 3.242-5.711 3.275-10.877 3.34-1.813-.065-3.617-.082-5.416-.147-2.628.57-5.585 3.373-8.248 3.21-4.655-.293-5.481-5.36-8.678-7.886-1.393-.424-2.82-.847-4.227-1.238-1.483-1.06-2.31-3.422-3.873-4.286-1.448-.782-3.772-.489-6.083-.195-2.71.326-5.393.668-6.605-.75-3.546-4.073 4.202-9.646 5.2-13.051 3.545-11.895-10.198-16.539-19.146-16.441-10.74.146-16.689-.815-23.86 8.163-11.782 14.665-38.382 13.15-43.502 35.326-.929 4.073-2.607 7.12-3.467 10.738-1.009 4.269.803 8.798-.487 13.116-2.482 8.571-13.709 16.05-15.159 25.159-.973 5.93 3.208 6.843 7.636 10.786 5.439 4.856 6.956 4.481 13.594 6.062 10.695 2.476 16.224 5.507 13.187 18.021-7.294.75-10.5 3.91-16.563 7.968-4.519 3.014-3.683-.082-4.825 5.915-1.111 5.85.793 11.47 3.454 16.554 2.063 3.944 6.652 10.624 10.719 12.922 3.319 1.857 6.706 1.01 10.387 3.21 5.496 3.275 5.564 4.823 5.393 10.917-.203 6.86 1.962 11.014 8.759 12.986 2.175.636 5.482.424 8.96.196 5.857-.359 12.19-.734 14.479 2.949 1.575 2.542.453 7.544 1.018 10.444 1.35.636 2.076 1.711 2.268 3.194.6 2.575-.544 5.736-.215 8.359 1.007 8.359 7.748 11.471 11.748 18.298 1.846 3.129 1.664 5.1 2.524 8.832.67 2.916 3.536 6.273 4.204 8.75 2.187 8.098-.961 13.947-4.067 21.133-3.08 7.17-5.21 15.382-14.342 13.72-7.601-1.385-12.156-8.212-15.703-14.372-3.998-6.974-4.712-10.917-14.195-10.265-8.79.62-16.175 7.17-21.877 13.638-2.14 2.395-4.122 5.312-5.38 8.098-1.757 3.797.295 6.73-5.232 8.343-3.355.994-6.64.912-9.89.831-3.875-.098-7.683-.18-11.467 1.5-.816-5.77-.396-7.724-5.302-11.358-3.228-2.363-7.591-6.518-11.396-7.528-4.975-1.336-9.258-.081-13.563 1.19-4.203 1.222-8.418 2.46-13.3 1.254.105-5.198-4.236-8.896-8.484-11.21-7.207-3.96-11.67-1.711-16.449 4.073-3.332 4.058-9.54 10.461-11.002 15.529-1.983 6.925 3.489 8.196 5.28 13.019-4.397 2.46-9.246 7.234-13.912 8.26-6.254 1.418-11.874-1.857-18.42-2.085-10.889-.358-18.648 10.591-15.896 21.28 4.735.147 6.762 2.95 10.456 5.296 2.958 1.874 11.59 2.02 13.187 3.715 2.607 2.819-.758 9.94.284 13.329.917 3.03 3.918 5.197 6.232 7.348 7.34 6.876 16.697 6.518 21.864 16.376 1.406 2.656.635 9.385 2.346 11.096 1.924 1.923 10.513.391 13.164.391 2.017 0 4.033 0 6.048.017 2.516 0 5.03 0 7.546-.017 1.86.033 3.681 0 5.506-.065 2.641.359 4.124 1.776 5.972 2.184 3.182.684 9.436 1.987 12.448.065 3.887-2.526 2.912-6.958 5.179-10.461 5.075-7.87 17.254-5.36 25.274-5.312 4.156.016 7.694-.7 11.216-1.434 4.113-.847 8.214-1.71 13.254-1.352 3.138.228 8.509.75 11.078 2.72 3.639 2.836 2.54 5.801 2.506 10.934-.034 7.626 2.176 19.032-1.983 25.207-9.65 14.339-27.643 18.298-43.627 14.958-.645-1.303-1.7-2.053-3.182-2.248-1.327-.294-2.629-.245-3.932-.18-1.43.066-2.866.13-4.35-.26-7.366-1.923-5.893-3.324-10.197 3.389-5.267 8.212-14.57 5.67-22.431 2.102-8.87-4.041-16.37-12.042-27.247-10.38-10.74 1.614-8.905 12.661-15.09 19.13 2.662 3.715 8.462 2.867 12.43 4.627 4.791 2.118 9.298 3.715 13.445 6.73 4.17 3.014 11.295 8.717 13.187 13.654 2.345 6.143-.27 11.048 5.268 16.441 5.926 5.8 19.282 7.577 21.91 15.457 2.062 6.143-.61 12.96.497 19.194 1.1 6.22 3.582 7.18 8.159 11.36 3.728 3.425 6.286 7.737 10.195 11.015 1.848 1.527 4.657 2.56 6.313 4.007 3.034 2.732 1.461 2.483 3.17 6.12 6.435 13.457 19.622 10.797 32.028 13.514 9.56 2.109 17.513 10.275 27.19 13.212 12.925 3.92 25.08-2.787 31.935-13.132 6.107-9.198 18.84-8.834 27.927-14.138 5.302-3.081 7.612-7.953 14.092-7.748 9.154.314 13.29 7.523 13.03-5.245-.104-5.306-.715-11.183.61-16.283 1.043-4.075 5.631-12.437 5.11-16.447-.556-4.217-7.114-6.526-9.234-10.073-2.58-4.344-4.404-11.66-4.7-16.988-.522-9.826-4.034-25.827 8.156-27.244 3.762-.457 13.244-1.369 16.53.537 2.334 1.337 2.119 5.378 5.267 5.378 2.188 0 6.027-5.345 8.113-6.6 4.43-2.72 10.977-6.273 16.414-4.888 4.159 1.076 3.137 3.357 6.016 5.165 1.471.945 3.104.734 4.747.538.963-.114 1.926-.228 2.867-.13 13.538 1.564 8.28 23.822-2.73 24.653-6.311.456-10.118-4.774-15.964-5.28-1.268 5.198-.974 11.276 1.509 16.066 2.752 5.394 5.131 5.003 8.12 4.612 1.836-.228 3.91-.473 6.46.603 10.443 4.438-4.885 22.976-3.049 30.225 1.268 4.973 3.694 7.354 2.923 13.515-.814 6.411-3.456 6.206-7.614 10.829-8.124 9.007-6.547 22.499 1.972 30.554 3.886 3.694 8.373 5.552 11.601 9.937 4.827 6.524 4.815 11.738 4.85 19.293.056 12.734-8.814 18.4-15.692 27.8-1.11 1.492-1.507 3.932-2.583 5.572-1.065 1.627-2.98 2.961-4.145 4.613-2.879 4.108-6.438 8.734-7.557 13.694-2.607 11.68-2.651 23-2.651 35.32 0 10.6-1.36 22.187-.057 32.667.68 5.493 4.531 7.973 5.608 13.547 1.382 6.96-.816 12.96-3.57 19.04-3.703 8.052-3.566 23.973-1.381 32.613 1.655 6.426 4.124 12.373 4.837 19.08.364 3.334 1.304 4.973 2.119 8.093.974 3.733-.317 7.28.396 10.895.75 3.785 3.229 4.798 5.04 7.946 2.256 3.932 2.732 9.053 4.068 13.347 1.734 5.572 3.4 11.08 4.782 16.745 2.832 11.787 1.892 23.014 2.571 35.347.533 10.133 6.264 18.067 8.35 27.04 2.991 12.827-3.694 28.375-.261 41.068 1.066 3.985 5.427 7.839 7.603 11.345 2.843 4.507 4.406 9.814 8.088 13.735 9.731 10.347 19.271 16.159 19.758 31.72.42 13.28-.068 26.147 5.46 38.333 4.079 9.04 8.214 18.747 8.125 29.027-.103 12.173.055 22.427 3.272 33.412 1.79 6.081 5.178 13.228 7.604 19.201 2.23 5.44 5.82 7.88 8.981 12.734 2.89 4.359 4.42 9.239 8.02 13.64 2.257 2.746 3.99 1.879 4.965 5.973.623 2.6-.974 5.733-.352 8.36.6 2.466 2.425 2.706 3.013 5.147.554 2.32-.125 5.88-.137 8.306-.042 6.36 0 12.68 0 19.053 0 10.801-.712 23.96 8.045 31.987 12.178 11.214 28.594 16.014 37.68 30.56 2.415 3.881 2.333 7.027 6.514 10.24 1.791 1.36 3.637 1.6 5.462 3.108 2.379 1.92 5.643 6 7.69 8.413 2.494 2.946 6.38 7.92 7.389 11.44.805 2.747.215 4.8.542 7.612.465 3.787 2.12 4.6 2.912 7.947.613 2.454-.306 5.747-.168 8.28.168 3.52 1.323 4.907 2.174 8.16 1.336 5.174.59 10.96.59 16.293 0 11.2-1.96 24.375-.126 35.36 3.704 22.175 29.58 28.442 36.128 48.333 1.575 4.749 2.062 8.468 2.062 14.188-.01 5.44.023 10.88 0 16.333-.045 12.053 2.492 22.613 7.478 33.268 4.145 8.865 13.322 11.065 17.718 20.478 2.051 4.427 2.923 9.333 5.392 14.187 4.103 8.014 4.997 10.054 13.064 13.601 4.395 1.894 8.032 4.466 13.435 2.293 6.128-2.426 11.08-11.32 16.449-15.333 4.748-3.534 7.432-3.334 13.447-3.267 7.059.093 12.338-2.346 19.047-2.773 1.541-.108 3.047-.026 4.508.04 3.489.186 6.75.359 9.81-1.893 3.771-2.84 5.733-10.12 6.809-14.4 1.653-6.6-.532-11.814 3.263-17.041 4.621-6.386 6.467-6.453 13.73-7.36 5.245-.654 7.783-2.866 13.538-2.773 5.053.066 11.364.987 16.293.107 3.024-.507 5.13-2.48 8.157-3 1.188-.187 2.274-.16 3.353-.12 1.348.054 2.684.093 4.202-.334 3.002-.852 9.244-4.96 10.944-8.066 1.292-2.346-.294-4.787 1.064-7.094.94-1.6 3.457-2.16 4.363-3.8 2.198-3.946.202-10.774 1.142-15.173.4-1.827 1.846-3.373 2.177-5.974.328-2.56-.034-5.613-.057-8.213-.021-7.026-.021-12.452 2.073-19.04 3.24-10.4 9.573-19.186 19.747-23.827 9.13-4.2 17.402-7.533 25.06-14.24 4.813-4.185 7.43-8.16 10.287-13.706 2.436-4.76 1.891-8.186 3.25-13.467 1.473-5.84 2.189-10 2.097-16.306-.114-7.308-2.504-10.24-5.484-16.24-4.191-8.374-2.594-20.12-2.663-29.96-.09-10.76 3.681-19.72 6.05-29.921 1.858-8.093 9.777-18 15.703-23.866 7.25-7.187 12.734-15.481 16.302-25.08 4.033-10.867 5.382-20.894 5.46-32.6 0-2.613.375-5.667.046-8.227-.398-2.906-1.631-3.827-2.187-5.96-1.461-5.613-3.376-9.8-3.307-15.747.09-6.773.894-11.813 2.106-18.4.499-2.8-.158-6.134.453-8.747.691-2.92 2.64-5.187 3.07-8.16 1.159-8.053-5.325-6.64-9.084-10.733-4.588-4.986-4.738-10.013-4.704-16.453.013-5.267.761-11.187.069-16.387-.68-5.026-2.492-8.694-3.377-14.066-.759-4.494-2.027-7.694-2.21-12.361-.1-3.48 1.17-8.507.218-11.84-.681-2.4-2.38-2.574-3.015-5.026-.757-3.081.126-7.787.16-11.026.103-11.028-4.735-21.241-2.843-32.615.883-5.36 4.927-12.013 8.178-16.32 2.572-3.32 4.102-4.08 5.598-7.987 1.563-4.145.35-9.666 5.244-11.266 4.08-1.333 9.051-.627 14.081.08 6.935.987 13.948 1.96 18.797-2.44 8.168-7.374 9.776-18.04 13.547-27.227 2.472-6.027.886-5.773 7.388-8.906 3.047-1.454 8.305-3.36 10.943-5.374 4.917-3.694 4.657-4.8 11.513-4.84 7.854-.012 9.827-2.747 16.16-6.16 7.068-3.854 8.614-1.493 11.654-9.547 1-2.614 1.68-2.586 2.133-5.96.36-2.694-.467-5.586-.133-8.292.627-4.734 2.133-8.121 5.44-10.854 3.986-3.308 9.319-3.493 13-7.974 4.16-5.04 6.866-12.586 14.24-13.933 1.267-.214 2.44-.134 3.613-.053 1.454.12 2.907.212 4.546-.28 2.774-.813 5.6-3.053 8.227-4.28 4.481-2.12 9.32-3.627 13.614-6.601 3-2.053 3.72-4.68 6.094-7.052 2.372-2.4 4.199-2.12 6.733-3.815 1.733-1.132 4.24-4.106 6.027-5.505 3.133-2.4 5.56-4.294 7.785-7.615 2.068-3.105-.065-3.452 2.974-6.118 2.187-1.908 5.947-2.614 8.36-4.548 3.04-2.387 4.986-5.6 8.227-7.826 2.187-1.52 3.8-1.28 5.96-2.987 6.08-4.76 11.187-13.12 15.76-19.227 3.414-4.466 4.053-10.239 7.307-14.334 3.786-4.718 9.027-4.533 14.373-4.705 1.28-.013 2.546.039 3.8.093 3.8.187 7.441.373 10.547-1.987 2.253-1.746 2.253-4.468 3.972-6.387 1.854-2.12 4.242-3.414 6.854-4.626 3.907-1.826 6.693-3.853 10.2-6.107 4.947-3.16 7.974-1.64 13.587-2.573 11.2-1.854 19.693-8.813 27.8-15.787 4.854-4.16 8.986-6.414 12.893-11.466 3.134-4.08 6.907-7.6 10.226-11.507 8.948-10.574 19.692-18.533 33.428-21.2 4.986-.973 8.245-2 13.606-2.64 5.214-.654 7.788-2.773 13.524-2.801 6.468-.013 9.108-1.094 14.322-4.747 4.302-3.039 8.164-4.36 12.824-6.745 12.465-6.267 22.03-15.868 32.034-25.944 5.019-5.063 10.575-7.512 11.536-14.15.815-5.528-.44-11.18-3.405-15.702-3.406-5.255-7.382-7.59-7.593-14.274-.147-5.947-2.38-10.502-2.721-16.29-.326-5.838.325-11.07 2.737-16.383 2.314-5.097 8.57-9.594 13.638-13.004 7.626-5.087 23.089-5.019 30.666-1.281 2.183 1.075 1.336 4.143 4.725 3.194 3.454-.952 2.656-5.485 2.737-7.884.212-6.582 1.94-10.355 2.705-16.246.603-4.486 1.06-12.86-1.971-16.563-2.314-2.8-5.377-2.787-8.669-2.777-1.662 0-3.405 0-5.116-.36-1.825-.378-3.373-1.833-5.964-2.175-.961-.114-2.265.065-3.617.26-1.793.245-3.666.505-4.807 0-4.562-1.955-2.428-9.173-2.51-13.784-.13-6.665.196-9.81 8.148-8.278 4.937.945 9.01 4.677 13.442 5.72 2.282.52 4.302.52 6.225.504 2.688-.032 5.214-.032 8.163 1.385 2.917 1.434 3.601-.032 4.986 3.178 1.173 2.737-.521 7.348.424 10.46 1.222 4.224 4.253 6.681 4.872 11.428.684 5.246-.13 11.081-.05 16.383.05 6.468-1.677 10.274-2.867 16.316-1.287 6.58 1.076 11.779 8.359 10.964 6.6-.714 5.687-4.588 8.848-10.368 2.183-3.985 4.22-6.762 4.758-11.406.7-6.051-.538-10.524 8.13-8.419 7.822 1.903 5.394 10.026 5.394 16.506 0 3.684-1.776 12.768.39 15.773 3.357 4.608 11.944 4.495 15.366.733 3.03-3.296 4.71-8.188 8.017-11.758 5.296-5.686 12.318-6.425 17.777-11.274 5.344-4.699 7.821-16.46 7.43-23.382-.505-9.73-7.218-11.528-11.683-18.877-3.764-6.257-2.835-16.734 0-22.502 3.585-7.316 8.946-14.225 4.204-21.883-1.71-2.737-4.48-3.878-5.622-7.348-1.466-4.351-.228-9.174-.488-13.671-.261-4.497-1.76-8.718-3.471-12.954-1.89-4.742-4.171-4.888-7.593-8.05-2.265-2.052-4.025-6.598-4.725-9.483-1.125-4.757-1.662-6.045-3.992-10.15-3.65-6.437-10.478-14.682-12.628-21.183 6.028-4.4 16.62-2.412 18.966-11.422 1.825-7.219-8.375-16.034-11.162-21.802-1.254-2.59-.765-7.903-3.112-10.347-1.955-2.004-8.57-4.806-11.015-5.442-4.17-1.092-8.62-.652-12.986-.62-1.906.017-6.68.913-8.343.196-3.535-1.499-1.678-2.183-3.193-5.588-1.516-3.357-3.927-10.07-2.281-13.834 1.303-2.966 5.344-3.65 8.293-5.165 3.927-2.005 5.166-5.54 8.783-7.659 3.666-2.167 11.569-.57 15.789-.57 10.477-.016 21.28-.244 21.785-13.59.147-4.285.587-9.417 0-13.654-.635-4.92-2.737-7.902-3.177-13.133-11.569-.929-23.268-8.505-31.595-16.701-7.136-7.023-22.437-19.309-8.83-27.26 5.67-3.324 11.177-7.349 17.092-3.357 5.165 3.438 4.578 9.516 8.033 13.687 5.132 6.143 12.074 2.9 18.428 1.222 7.952-2.118 14.518 1.548 21.199 4.546 1.385-4.48-1.923-11.78 3.128-13.557 5.394-1.89 10.363 7.056 11.21 11.13.767 3.796.815 12.66-.064 16.44-1.32 5.752-7.545 9.728-3.715 16.31 3.747 6.404 18.233 9.614 24.718 11.325 2.167.57 3.014 1.841 5.963 2.216 2.705.326 4.97-.033 7.626.505 1.792.375 3.422 1.841 5.996 2.2 3.438.44 7.447 0 10.934-.065 6.42-.082 12.595 1.32 18.852 2.704 6.257 1.418 12.563 2.82 19.26 2.722 4.774-.05 9.369.7 13.931 1.45 6.746 1.108 13.475 2.232 20.726.668 1.874-.391 3.373-1.841 6.013-2.167 2.395-.326 5.768-.18 8.196 0 5.572.39 10.721 2.053 16.375 2.688 8.93 1.027 19.716 8.36 16.376 19.244-2.232 7.3-14.91 11.422-21.215 14.127-9.483 4.09-25.305 3.91-33.468 12.807-4.497 4.872-1.727 10.607-2.477 16.49-.7 5.425-3.91 8.31-6.224 13.54-1.45 3.291-1.32 4.872-1.988 8.228-.391 2.005-1.809 4.53-2.102 5.964-1.238 5.85-.62 12.318-.62 18.412 0 5.622-.195 11.276-.064 16.865.13 4.725 1.45 7.886 2.2 12.367.618 3.78-.18 8.13 1.124 11.748 4.187 11.602 16.05 18.918 23.414 27.668 1.907 2.265.294 3.373 3.015 5.572 2.379 1.89 5.523 1.988 8.359 2.02 7.919.115 8.375-4.888 11.568-11.063 2.722-5.198 6.632-8.18 9.467-13.524 3.7-6.958 9.532-12.351 13.638-19.146 1.728-2.851 5.345-10.086 8.099-11.585 4.806-2.64 6.68 1.646 8.896 6.16 2.835 5.8 3.422 13.1 4.823 19.21 1.418 6.013.62 12.758.62 18.95 0 5.67-1.027 11.39 1.987 16.457 2.738 4.612 7.023 5.622 11.064 8.685 3.39 2.558 6.371 6.697 8.685 10.151 1.906 2.82 3.145 5.394 4.741 8.36.717 1.27 3.145 6.778 3.895 7.478 3.193 3.03 11.699 3.275 15.854 3.226.929 0 1.776.017 2.558.033 5.556.065 7.707.13 11.634-5.344 5.393-7.545 9.63-14.274 13.638-22.584 3.91-8.18 4.856-11.976 4.79-21.02-.064-3.112.376-5.654-.488-8.766-1.092-3.845-4.693-6.224-5.214-10.314-.945-7.055 6.387-10.559 9.19-16.262 2.623-5.344 1.955-10.46 1.955-16.294 0-6.73 1.646-15.447.098-21.899-1.076-4.579-4.71-7.772-2.966-13.573 1.695-5.654 6.013-5.36 11.015-5.312 5.426.082 10.852 0 16.294 0 5.247 0 14.34 1.841 19.178.18 3.927-1.337 5.801-7.545 8.555-10.918 4.367-5.328 8.864-10.526 12.449-16.44 2.737-4.547 5.442-8.555 6.094-13.54 1.01-7.431-1.5-10.315-4.807-16.311-2.721-4.889-4.872-10.754-3.536-16.523.88-3.747 4.92-6.794 5.72-10.59 1.172-5.508.993-10.25 3.225-15.839 2.135-5.263 4.416-11.422 6.763-16.897 2.248-5.295 5.556-8.065 6.24-13.556.7-5.475-.782-10.934.554-16.376 2.363-9.662 12.188-13.508 15.089-22.34 1.4-4.252 2.9-8.619 3.389-12.92.651-5.622 2.428-10.852 2.72-16.376.262-5.116-1.384-11.52-.195-16.457.57-2.412 2.233-2.754 2.933-5.133-.44-1.971-.293-3.878.375-5.752a15.263 15.263 0 014.302-3.242c5.85-6.404 15.463-12.856 19.162-21.085 2.036-4.53 3.258-9.841 5.295-14.257 3.373-7.284 3.813-6.436 11.634-7.414 5.996-.75 7.528-4.823 12.987-.13 3.063 2.656 4.285 7.055 8.554 8.342 2.884.88 7.023.554 10.852.228 2.037-.179 3.976-.358 5.589-.358 2.574.032 5.67.44 8.212.065 6.42-.961 2.575-.717 5.964-4.904 5.41-6.649 12.514-13.753 19.113-18.87 14.192-11.014-9.272-15.886-3.585-28.14 3.438-7.348 21.068 1.94 24.783-10.525 1.337-4.416-.097-11.813-.114-16.457-.032-6.697 1.874-10.298 2.77-16.245 1.565-10.51-6.599-18.12-16.359-19.08-5.833-.587-8.587-2.966-13.459-5.46-5.605-2.835-11.878-2.541-17.125-4.757-9.5-4.009-12.824-11.928-10.347-22.568 2.249-9.515 12.465-20.79-5.28-21.655-5.115-.26-10.851-.423-15.707.685-5.621 1.238-7.756 4.986-8.831-3.292-1.01-7.804-4.171-19.047-13.41-21.931-10.803-3.406-19.504 8.391-27.374 13.035-8 4.709-15.692 8.522-24.393 12.318-5.246 2.281-9.906 2.868-14.338 6.746-3.895 3.373-4.58 5.85-10.07 6.208-11.13.733-19.781-11.422-29.819-13.85-9.499-2.297-21.54 6.876-27.488 13.72-3.52 4.09-5.116 8.163-10.526 10.281-3.568 1.385-7.511 1.076-11.21 2.575-2.77 1.124-5.28 2.982-8.017 4.204-5.1 2.248-8.733 2.72-13.459 5.393-5.507 3.112-11.308 6.013-16.587 9.5-12.253 8.081-5.263 18.037-8.424 30.176-9.63.978-21.232 8.424-29.444 13.932-12.383 8.31-23.61 21.459-38.112 26.64-5.589 2.005-10.33 4.22-15.707 6.795-5.834 2.77-13.476 2.477-19.847 4.628-5.425 1.841-10.526 9.076-13.507 13.638-1.793 2.754-1.695 4.953-3.178 7.56-1.645 2.9-5.1 4.302-4.546 8.36 5.165 1.368 9.239.39 13.964 2.46 3.357 1.45 8.522 2.607 11.015 5.312 8.326 8.929-1.32 23.805-11.7 25.402-6.044.913-10.313.245-16.293 2.59-5.98 2.282-10.086 1.826-16.18 2.575-9.483 1.141-20.303 6.127-28.27 11.064-6.665 4.155-11 9.45-18.07 5.36-6.975-4.056-13.395-8.162-21.102-11.535-4.741-2.037-8.799-2.037-14.078-2.037-.75 0-1.515 0-2.297-.016-6.893-.017-10.706 1.987-16.832 2.786-3.259.44-6.713.277-10.151.114-2.102-.098-4.204-.212-6.225-.18-7.87.147-8.326-.26-8.163-8.163.293-11.976-7.48-20.921-8.212-33.142-.44-6.974-1.548-17.272-.082-24.05 1.32-6.013 2.77-9.793 2.868-16.196.147-13.98-12.351-16.392-24.474-16.295-1.466 0-2.965-.032-4.464-.081-4.009-.114-8.05-.244-11.863.668-5.328 1.32-7.43 3.731-11.405 6.876-4.074 3.243-10.64 3.813-13.834 8.098-3.406 4.514-1.89 11.292-1.923 16.897-.016 3.275-1.026 8.213-.147 11.325.669 2.395 2.363 2.542 3.015 5.002.342 1.369.489 7.137.032 8.44-1.14 3.455-3.307 2.51-5.768 5.15-4.187 4.513-2.574 11.324-2.574 17.06-.016 6.68-.782 14.077.603 20.53.814 3.699 5.556 9.157-.391 11.683-1.206.505-2.9.228-4.595-.065-1.369-.228-2.721-.457-3.764-.277-2.982.521-5.214 2.232-8.18 2.949-6.909 1.613-10.135 3.568-16.31 7.446-5.964 3.78-12.14 3.764-19 3.406-10.933-.587-21.573-5.654-32.636-5.491-12.938.195-28.043 2.183-40.8.114-7.317-1.19-12.4-7.43-18.397-11.13-5.4-3.372-11.626-5.132-17.066-8.032-3.787-2.02-6.293-6.16-10.694-7.61-5.573-1.873-13.185-.554-19.053-.554-4.587 0-12.214 1.548-16.467.212-3.746-1.173-7.906-8.293-10.133-11.748-2.52-3.943-2.92-8.929-5.307-13.051-3.106-5.41-9.066-7.365-14.32-10.054-10.36-5.28-21.053-6.126-32.627-6.126-5.426 0-10.866.048-16.307 0-7.026-.033-12.333 2.378-19.027 2.802-7.919.456-10.239-.521-16.185-5.475-6.88-5.735-14.413-10.998-22.028-15.724-4.199-2.64-8.732-7.316-13.292-8.847-6.228-2.102-14.602-4.302-21.294-5.442-10.72-1.842-19.772-6.404-30.507-8.245-1.32-.196-2.679-.033-4.052.146-1.402.196-2.774.375-4.108.147-3.013-.521-5.133-2.477-8.146-2.998-1.48-.245-3.094-.098-4.707.049-1.173.098-2.374.212-3.467.163-4.374-.212-7.2-2.135-11.476-2.933-2.503-.44-4.724-.408-6.84-.342-3.176.065-6.12.146-9.45-1.5-4.375-2.101-8.634-4.415-12.916-6.24-3.999-1.711-9.007-2.689-13.685-2.64-4.757.082-14.99 1.988-19.214.196-7.193-3.031-6.164-23.122-5.3-30.177.677-5.54 2.639-5.996 6.171-10.086 3.719-4.302 6.528-9.532 9.518-14.388 2.641-4.318 5.009-7.854 3.604-13.573-1.305-5.312-6.935-5.654-8.497-10.689-3.944-12.628 8.497-23.398 17.185-29.345 6.627-4.547 13.98-7.48 21.003-11.553 1.61-.978 4.046-1.19 4.952-3.308 1.631-3.878-1.146-2.77-1.633-5.475-1.04-5.833.94-12.823-.453-18.559-.588-2.46-2.413-2.672-2.988-5.149-.647-2.655 1.028-5.817.259-8.424-1.395-4.839-6.685-6.012-11.013-7.348-4.61-1.418-10.047-4.432-14.194-5.508-5.982-1.531-12.62-1.417-18.58-3.242-2.345-.733-2.74-2.38-5.143-2.933-1.383-.31-2.854-.098-4.329.114-1.348.195-2.695.375-3.953.163-3.534-.587-13.674-3.21-15.939-6.143-1.302-1.71-.33-5.491-.917-7.593-.693-2.51-2.89-5.866-4.158-8.163-3.908-6.974-6.821-11.146-14.422-13.655-2.482-.83-3.66-.864-5.96-1.906-2.391-1.14-4.588-3.015-6.967-4.204-1.347-.7-4.736-1.695-5.958-2.444-3.354-2.135-5.053-5.72-8.203-7.903-4.407-3.063-9.868-3.487-13.72-7.805-2.752-3.063-2.57-4.464-2.662-8.277-.09-3.927-1.427-5.866-2.051-8.767-1.245-5.833.42-11.862-.488-17.76-.78-5.214-8.688-17.5-5.21-22.079 1.303-1.694 13.64-.782 15.43.212 5.641 3.096 6.48 7.186 14.139 7.658 5.176.343 10.842 1.19 14.319-2.525 4.984-5.345 7.84-20.189 10.277-26.82 1.663-4.498 6.615-17.663 4.948-22.421-2.31-6.583-11.476-5.817-16.04-8.017-4.011-1.971-7.692-5.035-11.466-7.642-2.594-1.792-2.785-1.026-4.85-3.259-.78-.847-2.41-4.155-3.25-5.36-4.984-7.251-4.847-10.363-4.825-19.293.012-6.305.012-12.595 0-18.885 0-3.389-.713-7.593-.148-10.884.906-5.133 2.992-8.082 2.855-13.59-.318-12.301-7.171-13.556-16.37-19.585-15.464-10.167 6.413-21.329 11.125-31.382 1.802-2.493 2.674-5.263 2.58-8.31.488-1.467 3.31-7.398 3.017-8.88-1.224-6.046-8.012-1.206-11.227-.408-4.013.994-6.992 1.027-10.933 2.656-2.868 1.173-7.432 4.22-10.265 3.047-.44-1.695-.781-3.438-1.064-5.165-1.563-1.89-3.649-3.145-5.53-4.628-4.667-3.633-7.296-5.133-12.779-6.192-9.595-1.808-23.927-.114-32.197-6.028-6.798-4.856-9.12-12.351-14.081-18.478-13.777-17.027-34.428 5.964-46.403 12.905-6.15 3.552-10.91 10.754-14.23 16.913-2.729 5.068-4.122 8.93-9.574 11.814-4.248 2.216-6.965.716-11.61 1.76-1.95.456-6.186 2.541-8.022 3.47-4.362 2.232-6.604 3.373-10.865 4.84-7.872 2.655-15.486 2.704-24.482 2.704-7.805 0-19.95 2.38-27.313.13l-13.472-16.44" fill="#fff"/><path d="M1774.773 824.693c3.294.694 6.6 1.227 9.974 1.374 21.56.906 42.866-3.534 64.013-7.014 1.387-.213 2.907-.48 4.413-.733 0-.773 0-1.64.014-2.613.28-11.974-7.467-20.92-8.214-33.147-.44-6.973-1.546-17.253-.066-24.053 1.306-6.014 2.76-9.787 2.853-16.187.173-13.973-12.347-16.387-24.467-16.307-5.413.04-11.066-.653-16.32.614-5.333 1.306-7.44 3.72-11.413 6.866-4.067 3.24-10.64 3.814-13.827 8.094-3.413 4.506-1.893 11.293-1.933 16.906-.013 3.267-1.027 8.2-.147 11.307.68 2.387 2.374 2.56 3.014 5 .346 1.373.48 7.147.026 8.44-1.133 3.453-3.293 2.52-5.76 5.16-4.186 4.507-2.573 11.32-2.573 17.053-.013 6.254-.627 13.094.413 19.24M1946.248 856.804c.446 10.105 1.16 8.26 11.444 7.307 7.01-.64 13.989-1.34 20.983-2.202 36.074-4.54 71.879-11.325 107.387-19.123 68.352-15.001 135.87-33.395 203.954-49.497 2.292-.536 4.613 1.086 4.613 3.527 0 11.161-2.306 18.215 4.465 23.126 5.045-4.569 10.432-9.39 12.992-15.09 2.053-4.554 3.259-9.852 5.283-14.271 3.393-7.293 3.84-6.43 11.652-7.412 5.997-.759 7.53-4.836 12.977-.134 3.05 2.664 4.3 7.04 8.572 8.35 4.39 1.338 11.741-.15 16.43-.135 2.574.03 5.67.447 8.199.075 6.429-.968 2.59-.715 5.982-4.911 5.403-6.652 12.486-13.766 19.109-18.87 14.212-11.013-9.272-15.894-3.572-28.142 3.423-7.366 21.043 1.935 24.778-10.536 1.325-4.42-.104-11.801-.119-16.444-.045-6.697 1.86-10.313 2.753-16.251 1.592-10.507-6.592-18.126-16.37-19.079-5.804-.595-8.557-2.961-13.438-5.446-5.596-2.843-11.86-2.56-17.114-4.777-9.51-4.004-12.828-11.906-10.343-22.546 2.218-9.524 12.456-20.805-5.298-21.668-5.104-.253-10.848-.432-15.715.67-5.61 1.25-7.738 5-8.825-3.274-1.026-7.813-4.167-19.049-13.393-21.936-10.82-3.408-19.51 8.378-27.383 13.036-8.006 4.703-15.7 8.528-24.39 12.308-5.24 2.291-9.912 2.872-14.332 6.741-3.899 3.378-4.598 5.863-10.09 6.22-11.116.745-19.778-11.429-29.808-13.854-9.51-2.292-21.534 6.89-27.471 13.736-3.542 4.077-5.135 8.155-10.552 10.268-3.571 1.399-7.515 1.086-11.206 2.575-2.753 1.13-5.283 2.99-8.006 4.211-5.12 2.247-8.736 2.709-13.468 5.387-5.506 3.11-11.31 6.027-16.578 9.495-12.263 8.08-5.268 18.036-8.423 30.18-9.644.982-21.236 8.438-29.436 13.944-12.397 8.304-23.603 21.46-38.127 26.638-5.596 1.995-10.328 4.212-15.715 6.787-5.834 2.782-13.468 2.485-19.838 4.628-5.432 1.83-10.536 9.078-13.512 13.631-1.786 2.754-1.712 4.956-3.17 7.56-1.652 2.902-5.12 4.316-4.569 8.364 5.194 1.369 9.257.387 13.974 2.47 3.363 1.459 8.527 2.605 11.013 5.298 8.348 8.944-1.295 23.81-11.697 25.403-6.028.908-10.299.253-16.281 2.59-5.983 2.291-10.09 1.83-16.177 2.59-9.494 1.145-20.328 6.13-28.29 11.071-3.527 2.203-6.429 4.703-9.435 5.968 3.29 6.696 5.239 13.929 5.58 21.444" fill="#f46c21"/><path d="M2289.154 823.981c-1.14-.548-1.801-1.927-1.801-3.137v-19.4c-113.659 27.138-227.627 63.603-344.774 71.102-1.914.126-3.728-1.773-3.63-3.672.52-12.648-1.14-25.844-8.3-34.932-6.444-3.813-12.507-7.611-19.696-10.734-.788-.352-1.534-.535-2.28-.746-5.219-.858-10.508-1.238-15.826-1.196-5.81.296-9.538 1.942-15.11 2.673-4.248.549-8.835.127-13.252-.014-.999.14-2.012.282-2.997.436-26.589 4.136-56.766 12.788-84.143 8.258.422 1.998.028 3.855-2.771 5.051-1.196.506-2.912.225-4.586-.056-1.38-.24-2.73-.465-3.77-.296-2.983.535-5.22 2.237-8.175 2.955-6.907 1.617-10.129 3.573-16.319 7.456-5.965 3.77-12.14 3.756-19.006 3.404-10.917-.59-21.567-5.655-32.625-5.486-12.943.183-28.038 2.166-40.798.112-7.316-1.21-12.394-7.442-18.402-11.142-5.402-3.362-11.62-5.135-17.065-8.019-3.784-2.026-6.288-6.162-10.692-7.61-5.57-1.872-13.182-.564-19.048-.564-4.587 0-12.226 1.562-16.474.211-3.743-1.167-7.907-8.286-10.13-11.747-2.518-3.939-2.926-8.933-5.303-13.041l-.225-.267c-26.885 15.067-53.798 30.064-82.076 42.416-2.476 1.083-5.472-.127-5.486-3.137-.056-7.696 2.405-21.16-7.963-19.429-4.01.69-8.005 1.35-12 2.012a4514.852 4514.852 0 01-30.754 5.022c-59.463 9.398-119.263 17.614-179.328 21.652-49.985 3.376-109.27 9.116-156.966-10.158-11.816-4.769-25.193-13.787-27.076-27.546-.848-6.274-3.262-6.007-8.45-5.726-1.665.07-3.613.17-5.881.029-11.35-.662-22.725-.971-34.088-.38-23.36 1.21-46.483 4.488-69.378 9.215-42.19 8.708-83.893 20.947-126.794 25.871-47.118 5.403-92.876 1.112-137.58-15.053-2.923-1.055-3.715-4.966-.872-6.696 9.527-5.754 16.234-14.14 23.2-22.425-49.847 4.445-99.218 16.67-148.748 25.041 4.214 3.475 6.084 3.349 12.042 4.755 10.694 2.476 16.223 5.501 13.187 18.022-7.296.746-10.5 3.925-16.564 7.963-4.519 3.01-3.682-.07-4.824 5.923-1.111 5.852.794 11.465 3.454 16.558 2.062 3.94 6.651 10.622 10.719 12.929 3.317 1.857 6.706.999 10.386 3.193 5.497 3.278 5.564 4.826 5.394 10.932-.204 6.85 1.961 11.015 8.758 12.985 2.175.633 5.484.422 8.961.183 5.857-.352 12.19-.732 14.478 2.954 1.574 2.532.453 7.555 1.019 10.453 1.347.633 2.075 1.702 2.267 3.18.6 2.574-.544 5.74-.215 8.37 1.007 8.357 7.748 11.466 11.749 18.289 1.845 3.123 1.663 5.107 2.524 8.835.67 2.912 3.535 6.274 4.203 8.75 2.188 8.104-.96 13.942-4.067 21.131-3.08 7.175-5.21 15.377-14.341 13.73-7.603-1.392-12.155-8.215-15.702-14.377-4-6.978-4.714-10.931-14.196-10.27-8.792.619-16.176 7.175-21.877 13.646-2.141 2.392-4.122 5.304-5.381 8.09-1.756 3.798.295 6.738-5.232 8.342-3.355.985-6.639.915-9.89.83-3.876-.084-7.681-.183-11.466 1.492-.816-5.754-.397-7.71-5.304-11.354-3.227-2.363-7.59-6.513-11.395-7.526-4.975-1.323-9.257-.07-13.562 1.196-4.204 1.224-8.417 2.462-13.299 1.266.103-5.206-4.237-8.906-8.486-11.213-7.206-3.967-11.67-1.73-16.449 4.066-3.332 4.066-9.54 10.467-11.001 15.531-1.982 6.922 3.489 8.188 5.28 13.014-4.398 2.462-9.246 7.23-13.913 8.272-6.253 1.407-11.873-1.857-18.42-2.082-10.887-.38-18.647 10.58-15.895 21.271 4.735.14 6.762 2.94 10.455 5.29 2.958 1.885 11.591 2.012 13.187 3.714 2.607 2.828-.757 9.946.284 13.323.919 3.039 3.92 5.205 6.232 7.358 7.341 6.879 16.698 6.527 21.865 16.375 1.404 2.645.633 9.384 2.346 11.086 1.924 1.927 10.511.408 13.163.408H485.785c1.858.028 3.68 0 5.505-.07 2.642.351 4.124 1.772 5.972 2.18 3.183.69 9.435 1.984 12.449.057 3.887-2.519 2.912-6.95 5.177-10.453 5.077-7.879 17.255-5.36 25.275-5.318 4.157.028 7.694-.703 11.216-1.421 4.113-.858 8.214-1.716 13.255-1.365 3.138.225 8.508.76 11.079 2.73 3.638 2.841 2.538 5.796 2.505 10.93-.035 7.626 2.175 19.021-1.982 25.211-9.652 14.336-27.643 18.303-43.629 14.955-.646-1.294-1.7-2.054-3.182-2.25-1.325-.296-2.628-.24-3.932-.184-1.428.07-2.866.14-4.35-.253-7.365-1.927-5.892-3.32-10.197 3.39-5.267 8.202-14.57 5.67-22.43 2.097-8.87-4.038-16.37-12.043-27.247-10.383-10.74 1.618-8.904 12.662-15.091 19.133 2.663 3.728 8.462 2.87 12.43 4.629 4.791 2.124 9.299 3.714 13.446 6.724 4.17 3.025 11.294 8.723 13.186 13.66 2.345 6.135-.27 11.045 5.269 16.447 5.925 5.796 19.282 7.569 21.91 15.447 2.062 6.148-.61 12.971.498 19.203 1.1 6.219 3.58 7.175 8.157 11.353 3.728 3.433 6.287 7.738 10.195 11.016 1.847 1.534 4.657 2.56 6.313 4.01 3.034 2.729 1.461 2.476 3.17 6.12 6.436 13.463 19.622 10.79 32.029 13.519 9.56 2.096 17.512 10.27 27.188 13.21 12.926 3.911 25.082-2.785 31.937-13.14 6.107-9.2 18.84-8.835 27.926-14.138 5.302-3.081 7.612-7.949 14.092-7.738 9.156.31 13.29 7.513 13.03-5.248-.102-5.303-.714-11.184.61-16.29 1.043-4.066 5.631-12.437 5.11-16.447-.555-4.206-7.114-6.527-9.233-10.073-2.581-4.333-4.406-11.662-4.701-16.994-.522-9.82-4.032-25.816 8.157-27.237 3.762-.45 13.244-1.364 16.529.535 2.335 1.336 2.118 5.374 5.267 5.374 2.187 0 6.028-5.332 8.113-6.598 4.43-2.715 10.978-6.275 16.415-4.882 4.157 1.07 3.137 3.363 6.014 5.163 1.473.943 3.105.746 4.748.535.963-.113 1.926-.225 2.868-.127 13.536 1.576 8.279 23.832-2.731 24.648-6.311.464-10.118-4.769-15.964-5.261-1.267 5.19-.974 11.268 1.509 16.066 2.751 5.388 5.132 4.994 8.121 4.6 1.835-.24 3.91-.478 6.46.605 10.443 4.432-4.885 22.974-3.05 30.219 1.27 4.98 3.695 7.358 2.924 13.52-.815 6.415-3.457 6.204-7.614 10.832-8.124 9.004-6.547 22.496 1.972 30.557 3.885 3.686 8.373 5.543 11.6 9.932 4.827 6.528 4.815 11.733 4.85 19.288.057 12.732-8.813 18.401-15.693 27.8-1.108 1.49-1.505 3.938-2.581 5.57-1.065 1.632-2.98 2.969-4.145 4.615-2.88 4.108-6.437 8.736-7.557 13.702-2.607 11.677-2.652 23.002-2.652 35.312 0 10.607-1.36 22.186-.056 32.67.678 5.493 4.53 7.974 5.607 13.547 1.383 6.96-.816 12.96-3.569 19.04-3.704 8.053-3.568 23.973-1.383 32.614 1.656 6.426 4.125 12.373 4.84 19.08.361 3.332 1.302 4.973 2.117 8.093.973 3.732-.317 7.28.395 10.893.75 3.786 3.23 4.8 5.042 7.947 2.256 3.933 2.731 9.053 4.068 13.346 1.733 5.574 3.4 11.08 4.781 16.747 2.834 11.786 1.893 23.013 2.572 35.347.532 10.133 6.263 18.066 8.35 27.04 2.99 12.827-3.695 28.374-.262 41.066 1.065 3.987 5.428 7.84 7.603 11.348 2.843 4.506 4.406 9.812 8.089 13.733 9.731 10.346 19.27 16.16 19.758 31.719.417 13.28-.068 26.147 5.46 38.334 4.078 9.04 8.214 18.747 8.124 29.027-.103 12.173.055 22.426 3.272 33.414 1.79 6.079 5.179 13.225 7.604 19.199 2.23 5.44 5.82 7.88 8.982 12.733 2.888 4.36 4.418 9.24 8.02 13.64 2.257 2.747 3.99 1.88 4.965 5.974.622 2.599-.975 5.733-.352 8.36.6 2.466 2.424 2.707 3.012 5.146.556 2.32-.125 5.88-.136 8.307-.043 6.36 0 12.68 0 19.053 0 10.8-.712 23.96 8.042 31.988 12.18 11.212 28.596 16.012 37.683 30.559 2.412 3.88 2.332 7.027 6.513 10.24 1.791 1.36 3.637 1.6 5.463 3.107 2.378 1.92 5.642 6 7.69 8.412 2.493 2.948 6.378 7.921 7.387 11.44.805 2.748.215 4.801.543 7.615.464 3.786 2.119 4.6 2.912 7.946.612 2.453-.306 5.746-.168 8.28.168 3.52 1.323 4.907 2.175 8.16 1.336 5.174.589 10.96.589 16.294 0 11.2-1.96 24.373-.125 35.36 3.703 22.173 29.58 28.44 36.127 48.333 1.575 4.746 2.063 8.466 2.063 14.186-.01 5.44.022 10.88 0 16.334-.045 12.054 2.49 22.613 7.477 33.267 4.146 8.866 13.322 11.067 17.718 20.48 2.051 4.427 2.923 9.333 5.392 14.186 4.103 8.014 4.997 10.054 13.064 13.6 4.394 1.894 8.032 4.467 13.434 2.293 6.13-2.426 11.08-11.32 16.45-15.333 4.747-3.532 7.431-3.333 13.447-3.266 7.06.092 12.338-2.347 19.046-2.773 1.542-.107 3.047-.027 4.509.039 3.489.187 6.751.36 9.81-1.894 3.771-2.839 5.732-10.119 6.809-14.399 1.653-6.6-.532-11.813 3.262-17.04 4.622-6.386 6.469-6.454 13.73-7.36 5.246-.654 7.784-2.867 13.54-2.774 5.052.067 11.363.988 16.292.107 3.024-.507 5.129-2.48 8.156-3 1.188-.187 2.275-.16 3.353-.12 1.35.054 2.684.094 4.204-.334 3-.853 9.244-4.96 10.942-8.065 1.293-2.347-.293-4.788 1.065-7.094.94-1.6 3.457-2.16 4.363-3.8 2.197-3.947.202-10.773 1.143-15.174.398-1.826 1.846-3.372 2.175-5.973.328-2.56-.032-5.613-.056-8.213-.023-7.026-.023-12.454 2.072-19.04 3.242-10.4 9.574-19.187 19.747-23.827 9.131-4.2 17.402-7.533 25.06-14.24 4.815-4.186 7.43-8.16 10.287-13.707 2.436-4.76 1.892-8.186 3.25-13.466 1.474-5.84 2.188-10.001 2.098-16.307-.114-7.307-2.504-10.24-5.485-16.24-4.19-8.374-2.594-20.12-2.662-29.96-.09-10.76 3.682-19.72 6.05-29.92 1.858-8.093 9.777-18 15.703-23.866 7.25-7.187 12.733-15.48 16.302-25.08 4.032-10.867 5.382-20.895 5.46-32.6 0-2.613.375-5.668.045-8.227-.398-2.906-1.63-3.828-2.186-5.96-1.462-5.614-3.376-9.8-3.309-15.747.093-6.773.895-11.813 2.11-18.4.496-2.8-.16-6.133.452-8.747.69-2.92 2.638-5.187 3.07-8.16 1.158-8.053-5.327-6.64-9.086-10.733-4.587-4.986-4.738-10.013-4.703-16.453.013-5.268.76-11.188.068-16.387-.678-5.027-2.49-8.693-3.375-14.067-.76-4.492-2.027-7.693-2.21-12.36-.102-3.48 1.169-8.507.216-11.84-.68-2.4-2.379-2.574-3.013-5.026-.758-3.081.125-7.787.159-11.027.103-11.027-4.736-21.24-2.843-32.613.882-5.36 4.926-12.013 8.178-16.321 2.573-3.32 4.102-4.08 5.597-7.987 1.563-4.146.35-9.666 5.244-11.266 4.081-1.333 9.053-.627 14.082.08 6.935.987 13.948 1.96 18.796-2.44 8.168-7.373 9.777-18.04 13.547-27.227 2.472-6.027.887-5.773 7.39-8.907 3.046-1.453 8.304-3.36 10.942-5.372 4.916-3.695 4.658-4.8 11.513-4.841 7.853-.013 9.827-2.746 16.16-6.16 7.067-3.853 8.613-1.493 11.653-9.546 1-2.614 1.68-2.587 2.133-5.96.36-2.694-.466-5.587-.132-8.294.626-4.733 2.133-8.12 5.439-10.853 3.987-3.307 9.32-3.493 13-7.974 4.16-5.039 6.867-12.585 14.24-13.933 1.267-.214 2.44-.134 3.613-.053 1.455.12 2.907.213 4.547-.28 2.776-.813 5.604-3.053 8.22-4.28 4.488-2.12 9.328-3.627 13.618-6.6 2.997-2.053 3.729-4.68 6.092-7.053 2.378-2.4 4.207-2.12 6.739-3.814 1.73-1.133 4.234-4.107 6.021-5.507 3.137-2.4 5.557-4.293 7.794-7.613 2.068-3.107-.07-3.453 2.968-6.12 2.195-1.906 5.951-2.613 8.357-4.547 3.039-2.386 4.994-5.6 8.23-7.826 2.195-1.52 3.799-1.28 5.965-2.987 6.078-4.76 11.184-13.12 15.757-19.226 3.418-4.467 4.051-10.24 7.301-14.334 3.799-4.72 9.032-4.533 14.378-4.706 1.28-.014 2.546.04 3.799.093 3.798.187 7.442.374 10.55-1.987 2.252-1.746 2.252-4.466 3.968-6.387 1.857-2.119 4.249-3.413 6.851-4.625 3.911-1.828 6.697-3.855 10.2-6.108 4.952-3.16 7.977-1.64 13.59-2.573 11.199-1.854 19.696-8.814 27.8-15.787 4.853-4.164 8.989-6.415 12.9-11.466 3.123-4.08 6.908-7.597 10.228-11.508 8.947-10.58 19.681-18.528 33.426-21.201 4.98-.97 8.23-1.998 13.59-2.645 5.234-.647 7.808-2.771 13.534-2.8 6.472-.014 9.116-1.083 14.322-4.74 4.305-3.04 8.16-4.362 12.83-6.753 12.45-6.26 22.031-15.855 32.02-25.943 5.036-5.05 10.58-7.512 11.536-14.138.816-5.53-.436-11.185-3.39-15.7-3.405-5.262-7.386-7.598-7.598-14.28-.154-5.95-2.377-10.51-2.715-16.291-.337-5.839.324-11.072 2.73-16.39 2.307-5.093 8.567-9.595 13.646-13 7.61-5.092 23.072-5.022 30.669-1.28 2.167 1.07 1.322 4.15 4.713 3.194 3.46-.956 2.659-5.486 2.73-7.878.224-6.584 1.955-10.354 2.714-16.25.591-4.487 1.07-12.858-1.97-16.558-2.306-2.8-5.373-2.785-8.665-2.785-1.674 0-3.405 0-5.121-.352-1.83-.38-3.363-1.843-5.965-2.18-.957-.113-2.265.07-3.616.253-1.8.253-3.672.52-4.811 0-4.558-1.956-2.434-9.159-2.504-13.773-.141-6.669.197-9.806 8.145-8.286 4.938.942 9.018 4.67 13.436 5.711 2.293.535 4.304.52 6.232.52 2.687-.027 5.205-.041 8.16 1.394 2.912 1.42 3.615-.043 4.98 3.165 1.181 2.73-.52 7.344.436 10.467 1.224 4.22 4.249 6.682 4.868 11.423.689 5.248-.127 11.086-.043 16.376.043 6.471-1.688 10.284-2.87 16.32-1.294 6.583 1.084 11.775 8.357 10.973 6.598-.718 5.684-4.6 8.849-10.369 2.18-3.995 4.22-6.767 4.755-11.41.704-6.049-.534-10.522 8.132-8.426 7.808 1.913 5.402 10.03 5.402 16.516 0 3.672-1.787 12.76.38 15.77 3.362 4.601 11.944 4.489 15.362.732 3.04-3.292 4.713-8.187 8.034-11.76 5.275-5.684 12.295-6.43 17.768-11.27 5.332-4.698 7.808-16.46 7.428-23.381-.506-9.736-7.231-11.536-11.677-18.894-3.77-6.232-2.842-16.713 0-22.495 3.574-7.316 8.948-14.224 4.193-21.877-1.703-2.743-4.474-3.883-5.628-7.358-1.449-4.347-.225-9.158-.478-13.66-.267-4.502-1.759-8.722-3.46-12.957-1.9-4.741-4.193-4.882-7.598-8.047-2.279-2.054-4.037-6.598-4.727-9.482-1.14-4.77-1.66-6.05-3.995-10.144-3.644-6.443-10.481-14.687-12.634-21.187 6.036-4.403 16.615-2.42 18.965-11.437 1.843-7.203-8.357-16.024-11.157-21.792-1.252-2.589-.76-7.907-3.109-10.354-1.955-1.998-8.582-4.798-11.015-5.445-4.179-1.083-8.624-.633-12.985-.605-1.914.014-6.683.9-8.343.197-3.545-1.505-1.688-2.195-3.194-5.585-1.519-3.362-3.939-10.073-2.279-13.843 1.309-2.969 5.346-3.658 8.287-5.178 3.925-1.997 5.163-5.528 8.778-7.653 3.672-2.166 11.579-.563 15.785-.563 10.481-.014 21.3-.239 21.806-13.59.14-4.276.577-9.425 0-13.66-.647-4.91-2.743-7.892-3.193-13.126-11.565-.928-23.27-8.497-31.598-16.699-7.133-7.034-22.425-19.302-8.82-27.265 5.669-3.32 11.183-7.343 17.092-3.362 5.163 3.447 4.572 9.524 8.033 13.703 5.135 6.134 12.07 2.898 18.43 1.224 7.948-2.139 14.518 1.533 21.2 4.53 1.394-4.474-1.94-11.776 3.124-13.548 5.402-1.9 10.368 7.048 11.213 11.114.773 3.812.816 12.675-.07 16.46-1.323 5.754-7.541 9.735-3.715 16.305 3.742 6.401 18.233 9.609 24.732 11.325 2.153.577 3.011 1.83 5.951 2.209 2.716.338 4.967-.028 7.625.52 1.787.366 3.42 1.83 5.994 2.181 3.446.45 7.456 0 10.93-.056 6.43-.07 12.606 1.322 18.852 2.715 6.26 1.407 12.578 2.8 19.274 2.715 4.77-.056 9.356.69 13.914 1.435 6.767 1.126 13.477 2.237 20.737.69 1.87-.408 3.376-1.857 6.007-2.181 2.391-.324 5.782-.169 8.202 0 5.57.394 10.72 2.054 16.375 2.701 8.934 1.013 19.724 8.357 16.376 19.232-2.223 7.287-14.913 11.423-21.215 14.124-9.482 4.094-25.31 3.911-33.469 12.802-4.502 4.868-1.73 10.622-2.476 16.503-.69 5.43-3.911 8.314-6.232 13.548-1.45 3.278-1.309 4.867-1.984 8.216-.38 1.997-1.815 4.53-2.11 5.965-1.224 5.838-.605 12.323-.605 18.415 0 5.613-.197 11.283-.07 16.854.14 4.727 1.449 7.892 2.194 12.38.633 3.77-.169 8.132 1.126 11.733 4.206 11.607 16.052 18.936 23.41 27.673 1.913 2.265.309 3.376 3.024 5.57 2.378 1.886 5.529 1.999 8.37 2.027 7.921.112 8.372-4.896 11.551-11.058 2.73-5.205 6.626-8.188 9.468-13.52 3.7-6.964 9.538-12.366 13.646-19.147 1.73-2.856 5.346-10.101 8.104-11.592 4.797-2.645 6.682 1.646 8.891 6.148 2.828 5.81 3.419 13.111 4.825 19.217 1.421 6.007.62 12.76.62 18.95 0 5.67-1.028 11.396 1.983 16.46 2.73 4.615 7.034 5.628 11.072 8.68 3.376 2.575 6.373 6.697 8.68 10.158 1.9 2.814 3.137 5.402 4.741 8.37.704 1.267 3.137 6.753 3.897 7.457 3.18 3.039 11.691 3.278 15.855 3.25.915 0 1.773.014 2.56.014 5.558.07 7.71.14 11.621-5.332 5.402-7.555 9.637-14.294 13.647-22.594 3.91-8.174 4.853-11.972 4.783-21.018-.07-3.11.38-5.642-.479-8.765-1.097-3.855-4.698-6.232-5.219-10.326-.942-7.034 6.387-10.537 9.187-16.25 2.63-5.331 1.955-10.466 1.955-16.304 0-6.725 1.646-15.433.099-21.89-1.084-4.587-4.7-7.78-2.969-13.563 1.689-5.655 6.022-5.374 11.03-5.318 5.416.085 10.847 0 16.291 0 5.234 0 14.336 1.843 19.175.183 3.925-1.336 5.797-7.554 8.554-10.917 4.361-5.346 8.849-10.537 12.436-16.446 2.758-4.544 5.445-8.567 6.106-13.534 1.013-7.442-1.505-10.326-4.811-16.319-2.715-4.882-4.882-10.762-3.546-16.53.887-3.742 4.924-6.795 5.74-10.58 1.154-5.5.985-10.256 3.222-15.84 2.138-5.262 4.418-11.424 6.767-16.897 2.237-5.29 5.543-8.075 6.232-13.562.69-5.472-.788-10.931.549-16.375 2.377-9.665 12.183-13.506 15.095-22.341 1.393-4.249 2.898-8.61 3.39-12.915.648-5.613 2.42-10.847 2.716-16.375.267-5.107-1.393-11.522-.197-16.46.563-2.42 2.237-2.758 2.94-5.135a10.103 10.103 0 01.366-5.74 15.237 15.237 0 014.305-3.25l.225-.211c-1.336-.605-2.687-1.083-3.995-1.73" fill="#f1f1ef"/><path d="M1326.904 1525.893c-53.995 5.734-107.885 12.427-161.81 18.88-49.51 5.894-103.72 18.467-153.5 11.294-39.786-5.694-73.466-24.507-109.685-40.48-19.86-8.734-43.65-19.68-65.73-20.374-16.28-.506-32.254 3.147-47.628 8.267-19.859 6.573-39.084 15.187-58.526 23.04.454 3.267-.418 6.413.226 9.613.749 3.787 3.23 4.8 5.042 7.947 2.255 3.933 2.731 9.053 4.067 13.347 1.733 5.573 3.4 11.08 4.781 16.746 2.834 11.787 1.892 23.014 2.572 35.347.532 10.133 6.264 18.067 8.35 27.04 2.99 12.827-3.695 28.373-.262 41.067 1.066 3.986 5.428 7.84 7.603 11.346 2.843 4.507 4.407 9.814 8.09 13.734 9.73 10.346 19.27 16.16 19.757 31.72.418 13.28-.068 26.146 5.46 38.333 4.078 9.04 8.214 18.747 8.124 29.027-.103 12.173.056 22.426 3.273 33.413 1.79 6.08 5.177 13.227 7.603 19.2 2.23 5.44 5.821 7.88 8.982 12.733 2.888 4.36 4.419 9.24 8.02 13.64 2.256 2.747 3.99 1.88 4.964 5.974.623 2.6-.974 5.733-.352 8.36.6 2.466 2.424 2.706 3.014 5.146.554 2.32-.126 5.88-.138 8.307-.042 6.36 0 12.68 0 19.053 0 10.8-.712 23.96 8.044 31.987 12.179 11.213 28.595 16.013 37.682 30.56 2.413 3.88 2.333 7.027 6.513 10.24 1.79 1.36 3.637 1.6 5.463 3.107 2.378 1.92 5.641 6 7.69 8.413 2.494 2.947 6.379 7.92 7.387 11.44.805 2.747.216 4.8.544 7.613.464 3.787 2.119 4.6 2.91 7.947.614 2.453-.305 5.747-.167 8.28.168 3.52 1.324 4.907 2.174 8.16 1.336 5.173.59 10.96.59 16.293 0 11.2-1.96 24.374-.126 35.36 3.704 22.174 29.58 28.44 36.128 48.334 1.575 4.746 2.063 8.466 2.063 14.186-.01 5.44.023 10.88 0 16.334-.045 12.053 2.49 22.613 7.477 33.266 4.146 8.867 13.322 11.067 17.718 20.48 2.052 4.427 2.924 9.334 5.392 14.187 4.102 8.013 4.997 10.053 13.064 13.6 4.394 1.893 8.032 4.467 13.434 2.293 6.13-2.426 11.08-11.32 16.45-15.333 4.748-3.533 7.432-3.333 13.448-3.267 7.058.094 12.337-2.346 19.045-2.773 1.541-.107 3.047-.027 4.508.04 3.49.187 6.752.36 9.81-1.893 3.773-2.84 5.734-10.12 6.81-14.4 1.653-6.6-.532-11.814 3.263-17.04 4.621-6.387 6.468-6.454 13.73-7.36 5.244-.654 7.783-2.867 13.539-2.774 5.052.067 11.363.987 16.29.107 3.026-.507 5.131-2.48 8.158-3 1.188-.187 2.276-.16 3.353-.12 1.348.053 2.684.093 4.203-.333 3.001-.854 9.244-4.96 10.943-8.067 1.293-2.347-.294-4.787 1.065-7.093.94-1.6 3.456-2.16 4.363-3.8 2.197-3.947.202-10.774 1.142-15.174.399-1.826 1.847-3.373 2.176-5.973.328-2.56-.033-5.613-.056-8.213-.022-7.027-.022-12.454 2.072-19.04 3.242-10.4 9.574-19.187 19.747-23.827 9.132-4.2 17.401-7.533 25.06-14.24 4.815-4.187 7.43-8.16 10.287-13.707 2.436-4.76 1.892-8.186 3.25-13.466 1.474-5.84 2.188-10 2.098-16.307-.114-7.307-2.504-10.24-5.486-16.24-4.19-8.373-2.593-20.12-2.661-29.96-.09-10.76 3.681-19.72 6.05-29.92 1.858-8.093 9.777-18 15.702-23.867 7.25-7.186 12.735-15.48 16.303-25.08 4.032-10.866 5.381-20.893 5.46-32.6 0-2.613.374-5.666.045-8.226-.397-2.907-1.63-3.827-2.187-5.96-1.461-5.614-3.376-9.8-3.308-15.747.092-6.773.895-11.813 2.108-18.4.498-2.8-.158-6.133.454-8.747.69-2.92 2.638-5.186 3.069-8.16 1.157-8.053-5.325-6.64-9.085-10.733-4.588-4.987-4.738-10.013-4.703-16.453.012-5.267.76-11.187.068-16.387-.679-5.027-2.49-8.693-3.376-14.067-.759-4.493-2.027-7.693-2.21-12.36-.1-3.48 1.17-8.506.218-11.84-.681-2.4-2.38-2.573-3.015-5.026-.758-3.08.126-7.787.159-11.027.103-11.027-4.735-21.24-2.843-32.613.883-5.36 4.927-12.014 8.178-16.32 2.573-3.32 4.102-4.08 5.598-7.987 1.563-4.147.351-9.667 5.244-11.267 4.08-1.333 9.052-.626 14.082.08 6.934.987 13.948 1.96 18.796-2.44 8.168-7.373 9.777-18.04 13.548-27.226 2.47-6.027.885-5.774 7.388-8.907 3.046-1.453 8.304-3.36 10.942-5.373 4.918-3.694 4.658-4.8 11.514-4.84 7.853-.014 9.826-2.747 16.16-6.16 7.066-3.854 8.613-1.494 11.653-9.547 1-2.613 1.68-2.587 2.133-5.96.36-2.693-.466-5.587-.133-8.293.627-4.734 2.133-8.12 5.44-10.854 3.987-3.306 9.32-3.493 13-7.973 4.16-5.04 6.867-12.587 14.24-13.933 1.267-.214 2.44-.134 3.613-.054 1.454.12 2.907.214 4.547-.28 2.773-.813 5.6-3.053 8.227-4.28 4.48-2.12 9.32-3.626 13.613-6.6 3-2.053 3.72-4.68 6.093-7.053 2.374-2.4 4.2-2.12 6.734-3.813 1.733-1.134 4.24-4.107 6.026-5.507 3.134-2.4 5.56-4.293 7.787-7.613.547-.827.8-1.44.933-1.987-42.453 2.613-84.84 6.347-127.149 10.853" fill="#2da246"/><path d="M534.431 808.405c54.911-8.864 109.586-23.382 164.726-27.26 3.352-.245 4.564 4.057 2.57 6.224-8.224 8.962-15.226 18.77-24.663 26.282 65.254 21.623 129.637 15.089 195.98-.179 59.727-13.768 118.817-27.7 180.517-20.302 1.914.211 3.74 1.482 3.646 3.65-1.368 31.48 47.697 36.417 69.834 38.437 46.042 4.237 92.75 1.304 138.687-2.982 46.905-4.383 93.608-10.623 140.115-17.94a3763.435 3763.435 0 0046.813-7.641c2.734-.457 9.747-3.112 11.96-.457 5.52 6.616 6.694 13.166 6.96 20.971 25.627-11.585 50.16-25.305 74.654-39.138-2.626-1.63-5.6-2.868-8.373-4.286-10.36-5.28-21.054-6.126-32.628-6.126-5.426 0-10.866.048-16.307 0-7.026-.033-12.333 2.378-19.027 2.802-7.919.456-10.239-.521-16.185-5.475-6.88-5.735-14.413-10.998-22.028-15.724-4.199-2.64-8.732-7.316-13.292-8.847-6.228-2.102-14.602-4.302-21.294-5.442-10.72-1.842-19.772-6.404-30.507-8.245-1.32-.196-2.679-.033-4.052.146-1.402.196-2.774.375-4.108.147-3.013-.521-5.133-2.477-8.146-2.998-1.48-.245-3.094-.098-4.707.049-1.173.098-2.374.212-3.467.163-4.374-.212-7.2-2.135-11.476-2.933-2.503-.44-4.724-.408-6.84-.342-3.176.065-6.12.146-9.45-1.5-4.375-2.101-8.634-4.415-12.916-6.24-3.999-1.711-9.007-2.689-13.685-2.64-4.757.082-14.99 1.988-19.214.196-7.193-3.031-6.164-23.122-5.3-30.177.677-5.54 2.639-5.996 6.171-10.086 3.719-4.302 6.528-9.532 9.518-14.388 2.641-4.318 5.009-7.854 3.604-13.573-1.305-5.312-6.935-5.654-8.497-10.689-3.944-12.628 8.497-23.398 17.185-29.345 6.627-4.547 13.98-7.48 21.003-11.553 1.61-.978 4.046-1.19 4.952-3.308 1.631-3.878-1.146-2.77-1.633-5.475-1.04-5.833.94-12.823-.453-18.559-.588-2.46-2.413-2.672-2.988-5.149-.647-2.655 1.028-5.817.259-8.424-1.395-4.839-6.685-6.012-11.013-7.348-4.61-1.418-10.047-4.432-14.194-5.508-5.982-1.531-12.62-1.417-18.58-3.242-2.345-.733-2.74-2.38-5.143-2.933-1.383-.31-2.854-.098-4.329.114-1.348.195-2.695.375-3.953.163-3.534-.587-13.674-3.21-15.939-6.143-1.302-1.71-.33-5.491-.917-7.593-.693-2.51-2.89-5.866-4.158-8.163-3.908-6.974-6.821-11.146-14.422-13.655-2.482-.83-3.66-.864-5.96-1.906-2.391-1.14-4.588-3.015-6.967-4.204-1.347-.7-4.736-1.695-5.958-2.444-3.354-2.135-5.053-5.72-8.203-7.903-4.407-3.063-9.868-3.487-13.72-7.805-2.752-3.063-2.57-4.464-2.662-8.277-.09-3.927-1.427-5.866-2.051-8.767-1.245-5.833.42-11.862-.488-17.76-.78-5.214-8.688-17.5-5.21-22.079 1.303-1.694 13.64-.782 15.43.212 5.641 3.096 6.48 7.186 14.139 7.658 5.176.343 10.842 1.19 14.319-2.525 4.984-5.345 7.84-20.189 10.277-26.82 1.663-4.498 6.615-17.663 4.948-22.421-2.31-6.583-11.476-5.817-16.04-8.017-4.011-1.971-7.692-5.035-11.466-7.642-2.594-1.792-2.785-1.026-4.85-3.259-.78-.847-2.41-4.155-3.25-5.36-4.984-7.251-4.847-10.363-4.825-19.293.012-6.305.012-12.595 0-18.885 0-3.389-.713-7.593-.148-10.884.906-5.133 2.992-8.082 2.855-13.59-.318-12.301-7.171-13.556-16.37-19.585-15.464-10.167 6.413-21.329 11.125-31.382 1.802-2.493 2.674-5.263 2.58-8.31.488-1.467 3.31-7.398 3.017-8.88-1.224-6.046-8.012-1.206-11.227-.408-4.013.994-6.992 1.027-10.933 2.656-2.868 1.173-7.432 4.22-10.265 3.047-.44-1.695-.781-3.438-1.064-5.165-1.563-1.89-3.649-3.145-5.53-4.628-4.667-3.633-7.296-5.133-12.779-6.192-9.595-1.808-23.927-.114-32.197-6.028-6.798-4.856-9.12-12.351-14.081-18.478-13.777-17.027-34.428 5.964-46.403 12.905-6.15 3.552-10.91 10.754-14.23 16.913-2.729 5.068-4.122 8.93-9.574 11.814-4.248 2.216-6.965.716-11.61 1.76-1.95.456-6.186 2.541-8.022 3.47-4.362 2.232-6.604 3.373-10.865 4.84-7.872 2.655-15.486 2.704-24.482 2.704-7.805 0-19.95 2.38-27.313.13l-13.472-16.44c-6.446 0-11.554-7.854-19.02-8.213-7.194-.358-14.524.066-21.741.066-7.24 0-13.412-.082-19.633 2.053-7.454 2.542-14.454 5.23-21.741 8.147-3.784 1.531-9.324 1.45-10.546 5.98-.963 3.78 2.242 7.528 3.059 10.998 1.268 5.491 3.026 12.889 7.25 17.142 1.993 1.988 4.791 2.232 7.023 3.861 1.962 1.45 3.422 3.846 5.28 5.459 9.778 8.505 1.758 9.613-5.755 14.99.805 5.084 6.288 4.791 10.32 5.166.611 4.595-5.416 9.744-7.883 13.198-1.461 2.053-8.62 8.408-8.486 10.933.215 3.78 10.797 3.683 14.059 5.394 5.018 2.623 7.296 7.61 5.437 13.72-1.574 5.197-6.74 3.861-8.496 7.804-2.084 4.71 1.19 12.123 3.603 15.903 4.962 7.74 11.792 13.98 16.223 21.704 2.232 3.813 5.947 12.107 10.218 13.866 4.849 1.972 11.645 1.174 16.507 3.031 9.54 3.634 15.42 16.148 19.51 24.523 1.052 2.15 2.072 4.774 4.099 6.257 1.585 1.157 5.496 1.157 6.3 1.776 5.054 4.057.26 8.603-3.467 13.736-3.76 5.181-9.087 9.907-15.68 10.998-1.574.245-4.295-.081-7.195-.44-4.575-.537-9.64-1.091-11.44.734-2.166 2.183-.419 12.807-.419 15.886 0 5.133 1.097 11.488-.534 16.376-1.46 4.383-5.596 6.876-7.613 10.673-3.137 5.947-5.041 12.937-7.487 19.227-3.91 10.07-9.972 12.416-19.022 16.913-4.17 2.102-6.73 4.302-11.489 4.84-7.16.814-12.79 1.564-19.144 5.311-6.436 3.797-5.462 6.73-5.393 13.671.067 6.453-1.574 10.233-2.868 16.278-1.142 5.524.556 9.239-1.892 14.257-1.461 2.933.023 3.601-3.17 5.003-2.277.977-8.487-.163-11.09-.212-5.826-.098-10.844 1.352-16.306 3.324-2.025.717-6.842 2.623-8.372 4.073-3.409 3.275-.883 2.053-2.436 6.127-1.823 4.92-4.394 11.015-2.933 16.522 1.631 6.029 8.713 6.778 8.488 13.361-.285 8.327-13.143 16.523-19.226 19.863-8.77 4.807-16.735 9.434-24.529 15.626-7.148 5.687-15.486 12.318-16.245 21.671-.489 5.98-3.275 8.408-6.185 13.606-2.923 5.246-4.884 11.145-8 16.294-4.917 8.18-13.913 15.267-21.16 21.15-3.98 3.242-5.711 3.275-10.877 3.34-1.813-.065-3.617-.082-5.416-.147-2.628.57-5.585 3.373-8.248 3.21-4.655-.293-5.481-5.36-8.678-7.886-1.393-.424-2.82-.847-4.227-1.238-1.483-1.06-2.31-3.422-3.873-4.286-1.448-.782-3.772-.489-6.083-.195-2.71.326-5.393.668-6.605-.75-3.546-4.073 4.202-9.646 5.2-13.051 3.545-11.895-10.198-16.539-19.146-16.441-10.74.146-16.689-.815-23.86 8.163-11.782 14.665-38.382 13.15-43.502 35.326-.929 4.073-2.607 7.12-3.467 10.738-1.009 4.269.803 8.798-.487 13.116-2.482 8.571-13.709 16.05-15.159 25.159-.508 3.03.363 4.741 1.903 6.208" fill="#f46c21"/><path d="M741.792 1566c.797 2.72 1.667 5.413 2.344 8.187 2.833 11.773 1.895 23 2.572 35.333.539 10.133 6.273 18.067 8.359 27.04 2.988 12.827-3.702 28.373-.262 41.08 1.06 3.973 5.42 7.827 7.594 11.333 2.848 4.507 4.412 9.8 8.096 13.734 9.73 10.36 19.27 16.173 19.756 31.72.417 13.28-.068 26.146 5.454 38.333 4.086 9.04 8.22 18.76 8.134 29.027-.104 12.173.052 22.426 3.266 33.413 1.79 6.08 5.178 13.227 7.611 19.2 2.224 5.427 5.821 7.88 8.981 12.733 2.886 4.36 4.415 9.24 8.011 13.64 2.26 2.747 3.996 1.88 4.97 5.974.626 2.6-.974 5.746-.347 8.36.59 2.466 2.414 2.693 3.006 5.146.555 2.32-.122 5.88-.14 8.307-.034 6.36 0 12.68 0 19.053 0 10.8-.713 23.96 8.046 31.987 12.18 11.213 28.6 16.027 37.686 30.573 2.415 3.867 2.33 7.014 6.516 10.227 1.79 1.36 3.632 1.613 5.455 3.107 2.381 1.92 5.65 6 7.699 8.426 2.484 2.934 6.377 7.907 7.385 11.427.797 2.76.208 4.8.537 7.613.47 3.787 2.12 4.6 2.919 7.947.61 2.453-.312 5.747-.173 8.293.173 3.507 1.32 4.894 2.173 8.147 1.336 5.173.59 10.96.59 16.293 0 11.214-1.965 24.374-.122 35.347 3.701 22.187 29.572 28.453 36.124 48.333 1.581 4.76 2.068 8.48 2.068 14.214-.019 5.426.017 10.866 0 16.32-.053 12.053 2.484 22.6 7.47 33.266 4.154 8.88 13.329 11.08 17.723 20.48 2.051 4.427 2.92 9.347 5.387 14.187 4.1 8.013 5.003 10.053 13.067 13.587 4.396 1.92 8.028 4.466 13.432 2.32 6.132-2.44 11.085-11.347 16.452-15.347 4.745-3.533 7.437-3.333 13.449-3.267 7.055.094 12.337-2.346 19.044-2.786 5.248-.347 9.992 1.36 14.319-1.854 3.769-2.826 5.733-10.106 6.809-14.4 1.65-6.586-.537-11.8 3.268-17.026 4.621-6.387 6.463-6.454 13.725-7.36 5.247-.654 7.784-2.867 13.536-2.774 5.056.067 11.364.987 16.298.12 3.024-.52 5.126-2.506 8.149-3 2.71-.453 4.832.294 7.559-.48 3.005-.853 9.244-4.946 10.948-8.053 1.284-2.347-.296-4.787 1.058-7.107.939-1.586 3.458-2.146 4.362-3.786 2.206-3.947.208-10.774 1.146-15.174.4-1.826 1.842-3.373 2.172-5.973.33-2.573-.034-5.613-.052-8.213-.018-7.027-.018-12.454 2.067-19.04 3.25-10.4 9.575-19.187 19.756-23.84 9.123-4.187 17.393-7.52 25.056-14.227 4.813-4.187 7.436-8.16 10.287-13.707 2.433-4.76 1.893-8.186 3.249-13.466 1.476-5.827 2.19-10.014 2.101-16.294-.121-7.32-2.502-10.253-5.49-16.253-4.187-8.373-2.588-20.12-2.659-29.973-.087-10.747 3.684-19.707 6.048-29.907 1.859-8.093 9.781-18 15.708-23.867 7.244-7.186 12.735-15.48 16.296-25.08 4.032-10.866 5.387-20.893 5.457-32.613 0-2.6.382-5.64.052-8.213-.401-2.907-1.633-3.84-2.189-5.96-1.46-5.614-3.372-9.8-3.301-15.747.086-6.773.886-11.813 2.101-18.4.504-2.8-.156-6.133.453-8.76.695-2.893 2.64-5.173 3.075-8.133 1.148-8.067-5.333-6.654-9.087-10.747-4.588-4.987-4.744-10.013-4.71-16.453.018-5.267.765-11.187.07-16.387-.677-5.027-2.485-8.693-3.372-14.067-.762-4.493-2.03-7.693-2.205-12.36-.105-3.48 1.164-8.506.208-11.84-.677-2.4-2.38-2.573-3.005-5.026-.764-3.08.121-7.787.157-11.027.104-11.027-4.744-21.24-2.85-32.613.886-5.36 4.935-12.027 8.183-16.307 2.572-3.333 4.1-4.093 5.595-8 1.564-4.147.348-9.68 5.247-11.267 9.713-3.186 24.517 5.227 32.876-2.36 8.165-7.373 9.782-18.04 13.552-27.213 2.466-6.04.886-5.787 7.384-8.933 3.042-1.44 8.305-3.334 10.945-5.36 4.919-3.694 4.659-4.8 11.497-4.827 7.88-.027 9.84-2.76 16.16-6.173 7.08-3.854 8.627-1.494 11.667-9.547 1-2.613 1.68-2.587 2.133-5.96.347-2.693-.466-5.587-.133-8.293.627-4.747 2.133-8.134 5.44-10.854 3.987-3.306 9.32-3.493 12.987-7.96l.146-.173H741.792" fill="#2da246"/><path d="M2393.146 773.69c2.381-2.203 4.792-4.346 7.144-6.146 14.212-11.013-9.272-15.894-3.572-28.142 3.423-7.366 21.043 1.935 24.778-10.536 1.325-4.42-.104-11.801-.119-16.444-.045-6.697 1.86-10.313 2.753-16.251 1.592-10.507-6.592-18.126-16.37-19.079-5.804-.595-8.557-2.961-13.438-5.446-5.596-2.843-11.86-2.56-17.114-4.777-9.51-4.004-12.828-11.906-10.343-22.546 2.218-9.524 12.456-20.805-5.298-21.668-5.104-.253-10.848-.432-15.715.67-5.61 1.25-7.738 5-8.825-3.274-1.026-7.813-4.167-19.049-13.393-21.936-10.82-3.408-19.51 8.378-27.383 13.036-8.006 4.703-15.7 8.528-24.39 12.308-5.24 2.291-9.912 2.872-14.332 6.741-3.899 3.378-4.598 5.863-10.09 6.22-11.116.745-19.778-11.429-29.808-13.854-9.51-2.292-21.534 6.89-27.471 13.736-3.542 4.077-5.135 8.155-10.552 10.268-3.571 1.399-7.515 1.086-11.206 2.575-2.753 1.13-5.283 2.99-8.006 4.211-5.12 2.247-8.736 2.709-13.468 5.387-5.506 3.11-11.31 6.027-16.578 9.495-12.263 8.08-5.268 18.036-8.423 30.18-9.644.982-21.236 8.438-29.436 13.944-12.397 8.304-23.603 21.46-38.127 26.638-5.596 1.995-10.328 4.212-15.715 6.787-5.834 2.782-13.468 2.485-19.838 4.628-5.432 1.83-10.536 9.078-13.512 13.631-1.786 2.754-1.712 4.956-3.17 7.56-.432.79-1.012 1.444-1.593 2.084h392.61M1779.653 769.8c.56 1.933 1.76 2.467 2.52 3.893h62.227c-.293-5.32-.413-10.933.507-15.186 1.306-6.014 2.76-9.787 2.853-16.187.173-13.973-12.347-16.387-24.467-16.307-5.413.04-11.066-.653-16.32.614-5.333 1.306-7.44 3.72-11.413 6.866-4.067 3.24-10.64 3.814-13.827 8.094-3.413 4.506-1.893 11.293-1.933 16.906-.013 3.267-1.027 8.2-.147 11.307M1452.016 773.698c-6.427-5.214-13.347-10.07-20.334-14.437-4.199-2.64-8.732-7.316-13.292-8.847-6.228-2.102-14.602-4.302-21.294-5.442-10.72-1.842-19.772-6.404-30.507-8.245-1.32-.196-2.679-.033-4.052.146-1.402.196-2.774.375-4.108.147-3.013-.521-5.133-2.477-8.146-2.998-1.48-.245-3.094-.098-4.707.049-1.173.098-2.374.212-3.467.163-4.374-.212-7.2-2.135-11.476-2.933-2.503-.44-4.724-.408-6.84-.342-3.176.065-6.12.146-9.45-1.5-4.375-2.101-8.634-4.415-12.916-6.24-3.999-1.711-9.007-2.689-13.685-2.64-4.757.082-14.99 1.988-19.214.196-7.193-3.031-6.164-23.122-5.3-30.177.677-5.54 2.639-5.996 6.171-10.086 3.719-4.302 6.528-9.532 9.518-14.388 2.641-4.318 5.009-7.854 3.604-13.573-1.305-5.312-6.935-5.654-8.497-10.689-3.944-12.628 8.497-23.398 17.185-29.345 6.627-4.547 13.98-7.48 21.003-11.553 1.61-.978 4.046-1.19 4.952-3.308 1.631-3.878-1.146-2.77-1.633-5.475-1.04-5.833.94-12.823-.453-18.559-.588-2.46-2.413-2.672-2.988-5.149-.647-2.655 1.028-5.817.259-8.424-1.395-4.839-6.685-6.012-11.013-7.348-4.61-1.418-10.047-4.432-14.194-5.508-5.982-1.531-12.62-1.417-18.58-3.242-2.345-.733-2.74-2.38-5.143-2.933-1.383-.31-2.854-.098-4.329.114-1.348.195-2.695.375-3.953.163-3.534-.587-13.674-3.21-15.939-6.143-1.302-1.71-.33-5.491-.917-7.593-.693-2.51-2.89-5.866-4.158-8.163-3.908-6.974-6.821-11.146-14.422-13.655-2.482-.83-3.66-.864-5.96-1.906-2.391-1.14-4.588-3.015-6.967-4.204-1.347-.7-4.736-1.695-5.958-2.444-3.354-2.135-5.053-5.72-8.203-7.903-4.407-3.063-9.868-3.487-13.72-7.805-2.752-3.063-2.57-4.464-2.662-8.277-.09-3.927-1.427-5.866-2.051-8.767-1.245-5.833.42-11.862-.488-17.76-.78-5.214-8.688-17.5-5.21-22.079 1.303-1.694 13.64-.782 15.43.212 5.641 3.096 6.48 7.186 14.139 7.658 5.176.343 10.842 1.19 14.319-2.525 4.984-5.345 7.84-20.189 10.277-26.82 1.663-4.498 6.615-17.663 4.948-22.421-2.31-6.583-11.476-5.817-16.04-8.017-4.011-1.971-7.692-5.035-11.466-7.642-2.594-1.792-2.785-1.026-4.85-3.259-.78-.847-2.41-4.155-3.25-5.36-4.984-7.251-4.847-10.363-4.825-19.293.012-6.305.012-12.595 0-18.885 0-3.389-.713-7.593-.148-10.884.906-5.133 2.992-8.082 2.855-13.59-.318-12.301-7.171-13.556-16.37-19.585-15.464-10.167 6.413-21.329 11.125-31.382 1.802-2.493 2.674-5.263 2.58-8.31.488-1.467 3.31-7.398 3.017-8.88-1.224-6.046-8.012-1.206-11.227-.408-4.013.994-6.992 1.027-10.933 2.656-2.868 1.173-7.432 4.22-10.265 3.047-.44-1.695-.781-3.438-1.064-5.165-1.563-1.89-3.649-3.145-5.53-4.628-4.667-3.633-7.296-5.133-12.779-6.192-9.595-1.808-23.927-.114-32.197-6.028-6.798-4.856-9.12-12.351-14.081-18.478-13.777-17.027-34.428 5.964-46.403 12.905-6.15 3.552-10.91 10.754-14.23 16.913-2.729 5.068-4.122 8.93-9.574 11.814-4.248 2.216-6.965.716-11.61 1.76-1.95.456-6.186 2.541-8.022 3.47-4.362 2.232-6.604 3.373-10.865 4.84-7.872 2.655-15.486 2.704-24.482 2.704-7.805 0-19.95 2.38-27.313.13l-13.472-16.44c-6.446 0-11.554-7.854-19.02-8.213-7.194-.358-14.524.066-21.741.066-7.24 0-13.412-.082-19.633 2.053-7.454 2.542-14.454 5.23-21.741 8.147-3.784 1.531-9.324 1.45-10.546 5.98-.963 3.78 2.242 7.528 3.059 10.998 1.268 5.491 3.026 12.889 7.25 17.142 1.993 1.988 4.791 2.232 7.023 3.861 1.962 1.45 3.422 3.846 5.28 5.459 9.778 8.505 1.758 9.613-5.755 14.99.805 5.084 6.288 4.791 10.32 5.166.611 4.595-5.416 9.744-7.883 13.198-1.461 2.053-8.62 8.408-8.486 10.933.215 3.78 10.797 3.683 14.059 5.394 5.018 2.623 7.296 7.61 5.437 13.72-1.574 5.197-6.74 3.861-8.496 7.804-2.084 4.71 1.19 12.123 3.603 15.903 4.962 7.74 11.792 13.98 16.223 21.704 2.232 3.813 5.947 12.107 10.218 13.866 4.849 1.972 11.645 1.174 16.507 3.031 9.54 3.634 15.42 16.148 19.51 24.523 1.052 2.15 2.072 4.774 4.099 6.257 1.585 1.157 5.496 1.157 6.3 1.776 5.054 4.057.26 8.603-3.467 13.736-3.76 5.181-9.087 9.907-15.68 10.998-1.574.245-4.295-.081-7.195-.44-4.575-.537-9.64-1.091-11.44.734-2.166 2.183-.419 12.807-.419 15.886 0 5.133 1.097 11.488-.534 16.376-1.46 4.383-5.596 6.876-7.613 10.673-3.137 5.947-5.041 12.937-7.487 19.227-3.91 10.07-9.972 12.416-19.022 16.913-4.17 2.102-6.73 4.302-11.489 4.84-7.16.814-12.79 1.564-19.144 5.311-6.436 3.797-5.462 6.73-5.393 13.671.067 6.453-1.574 10.233-2.868 16.278-1.142 5.524.556 9.239-1.892 14.257-1.461 2.933.023 3.601-3.17 5.003-2.277.977-8.487-.163-11.09-.212-5.826-.098-10.844 1.352-16.306 3.324-2.025.717-6.842 2.623-8.372 4.073-3.409 3.275-.883 2.053-2.436 6.127-1.823 4.92-4.394 11.015-2.933 16.522 1.631 6.029 8.713 6.778 8.488 13.361-.285 8.327-13.143 16.523-19.226 19.863-8.77 4.807-16.735 9.434-24.529 15.626-7.148 5.687-15.486 12.318-16.245 21.671-.489 5.98-3.275 8.408-6.185 13.606-2.923 5.246-4.884 11.145-8 16.294-4.917 8.18-13.913 15.267-21.16 21.15-3.98 3.242-5.711 3.275-10.877 3.34-1.813-.065-3.617-.082-5.416-.147-2.628.57-5.585 3.373-8.248 3.21-4.655-.293-5.481-5.36-8.678-7.886-1.393-.424-2.82-.847-4.227-1.238-1.483-1.06-2.31-3.422-3.873-4.286-1.448-.782-3.772-.489-6.083-.195-2.71.326-5.393.668-6.605-.75-3.546-4.073 4.202-9.646 5.2-13.051 3.545-11.895-10.198-16.539-19.146-16.441-10.74.146-16.689-.815-23.86 8.163-11.782 14.665-38.382 13.15-43.502 35.326-.929 4.073-2.607 7.12-3.467 10.738-.758 3.177.057 6.501-.012 9.776h903.854" fill="#f46c21"/><path d="M1847.533 745.613c.094-1.053.2-2.08.227-3.293.173-13.973-12.347-16.387-24.467-16.307-5.413.04-11.066-.653-16.32.614-5.333 1.306-7.44 3.72-11.413 6.866-4.067 3.24-10.64 3.814-13.827 8.094-.92 1.186-1.453 2.573-1.773 4.026h67.573M653.541 745.613c-1.338-.4-2.693-.8-4.032-1.173-1.477-1.067-2.31-3.44-3.874-4.293-3.144-1.72-10.442 1.653-12.684-.947-3.544-4.08 4.205-9.653 5.196-13.053 3.544-11.907-10.2-16.547-19.148-16.44-10.739.133-16.68-.827-23.856 8.146-10.235 12.76-31.624 13.294-40.45 27.76h98.848" fill="#f46c21"/><path d="M1433.8 1196.213c0 142.307-115.37 257.694-257.673 257.694-142.326 0-257.7-115.387-257.7-257.694 0-142.306 115.374-257.666 257.7-257.666 142.302 0 257.673 115.36 257.673 257.666" fill="#2155ad"/><path d="M1289.463 1389.867c5.786-3.414 11.394-7.04 16.834-10.947-11.048-23.227-4.77-28.107 15.056-11.693 5.086-4.347 10.015-8.894 14.7-13.654-14.916-20.973-9.58-26.92 12.814-14.16a215.02 215.02 0 0012.08-16.013c-18.347-18.067-14.12-24.813 10.146-16.173 3.307-5.787 6.387-11.734 9.16-17.854-21.266-14.626-18.24-21.986 7.187-17.666 2.253-6.267 4.267-12.654 5.933-19.16-23.493-10.72-21.84-18.547 3.92-18.68a223.239 223.239 0 002.467-19.92c-24.907-6.48-24.6-14.454.72-19.094-.04-6.72-.387-13.4-.987-20.013-25.706-2.053-26.813-9.96-2.666-18.907-1.2-6.613-2.68-13.16-4.467-19.56-25.653 2.467-28.12-5.16-5.827-18.173a219.345 219.345 0 00-7.8-18.493c-24.88 6.893-28.626-.147-9-16.84-3.386-5.8-7.013-11.4-10.906-16.827-23.227 11.027-28.116 4.76-11.694-15.04-4.386-5.12-8.906-10.027-13.693-14.707-20.97 14.92-26.861 9.56-14.127-12.813-5.12-4.293-10.512-8.32-16.02-12.133-18.068 18.4-24.809 14.173-16.153-10.107a222.303 222.303 0 00-17.844-9.16c-14.636 21.24-22.035 18.227-17.696-7.2a218.21 218.21 0 00-19.157-5.933c-10.706 23.506-18.522 21.88-18.682-3.934a244.354 244.354 0 00-19.928-2.466c-6.469 24.92-14.421 24.613-19.044-.68-6.764.026-13.469.386-20.052 1-2.05 25.68-9.946 26.786-18.908 2.666a212.921 212.921 0 00-19.564 4.427c2.446 25.68-5.122 28.12-18.173 5.827-6.31 2.333-12.472 4.92-18.488 7.813 6.91 24.88-.159 28.627-16.836 8.973a206.792 206.792 0 00-16.835 10.934c11.047 23.226 4.759 28.106-15.033 11.706a232.325 232.325 0 00-14.715 13.667c14.919 20.973 9.571 26.867-12.802 14.133-4.295 5.134-8.292 10.494-12.099 16.014 18.353 18.08 14.104 24.826-10.152 16.173a219.896 219.896 0 00-9.13 17.853c21.229 14.614 18.227 21.987-7.218 17.667a218.547 218.547 0 00-5.935 19.16c23.507 10.733 21.852 18.507-3.898 18.707a203.662 203.662 0 00-2.47 19.933c24.89 6.453 24.607 14.413-.748 19.053.058 6.734.386 13.427 1.032 20.027 25.66 2.04 26.77 9.947 2.627 18.893 1.212 6.64 2.685 13.16 4.465 19.574 25.671-2.454 28.13 5.133 5.811 18.2a224.433 224.433 0 007.807 18.426c24.901-6.866 28.638.16 9.005 16.867a224.76 224.76 0 0010.91 16.853c23.225-11.066 28.13-4.786 11.725 15.014a218.757 218.757 0 0013.664 14.72c20.969-14.947 26.872-9.574 14.138 12.813 5.143 4.28 10.491 8.307 15.996 12.12 18.08-18.373 24.834-14.16 16.168 10.12 5.799 3.28 11.758 6.373 17.875 9.147 14.615-21.254 22.003-18.227 17.675 7.2a215.47 215.47 0 0019.145 5.933c10.717-23.507 18.524-21.853 18.692 3.92a217.686 217.686 0 0019.93 2.427c6.467-24.854 14.443-24.574 19.065.746 6.753-.026 13.449-.373 20.03-1 2.039-25.68 9.946-26.773 18.896-2.64 6.627-1.186 13.164-2.693 19.578-4.44-2.447-25.693 5.121-28.16 18.16-5.853a226.35 226.35 0 0018.5-7.787c-6.911-24.893.136-28.653 16.836-8.986" fill="#fff"/><path d="M1182.692 1075.787c0 47.76-6.567 86.44-6.567 86.44s-6.568-38.68-6.568-86.44c0-47.72 6.568-86.44 6.568-86.44s6.567 38.72 6.567 86.44M1182.692 1316.64c0 47.733-6.567 86.44-6.567 86.44s-6.568-38.707-6.568-86.44c0-47.72 6.568-86.427 6.568-86.427s6.567 38.707 6.567 86.427M1207.452 1079.733c-9.87 46.72-24.325 83.24-24.325 83.24s1.581-39.24 11.45-85.946c9.887-46.72 24.326-83.214 24.326-83.214s-1.564 39.227-11.451 85.92M1157.655 1315.4c-9.871 46.707-24.308 83.213-24.308 83.213s1.564-39.2 11.433-85.933c9.87-46.72 24.308-83.2 24.308-83.2s-1.581 39.2-11.433 85.92M1230.857 1088.76c-19.322 43.64-40.988 76.36-40.988 76.36s9.643-38.04 28.964-81.693c19.322-43.654 40.99-76.387 40.99-76.387s-9.628 38.04-28.966 81.72M1133.38 1309.013c-19.303 43.627-40.97 76.387-40.97 76.387s9.643-38.053 28.965-81.72c19.32-43.64 40.988-76.387 40.988-76.387s-9.643 38.054-28.983 81.72M1251.899 1102.387c-27.94 38.72-55.914 66.266-55.914 66.266s17.324-35.213 45.246-73.933c27.94-38.72 55.894-66.28 55.894-66.28s-17.288 35.24-45.226 73.947M1110.984 1297.747c-27.921 38.72-55.897 66.226-55.897 66.226s17.324-35.226 45.245-73.92c27.941-38.746 55.897-66.293 55.897-66.293s-17.305 35.253-45.245 73.987M1269.673 1120.08c-35.341 32.08-68.406 53.267-68.406 53.267s24.221-30.88 59.564-62.974c35.324-32.12 68.389-53.266 68.389-53.266s-24.223 30.88-59.547 62.973M1091.401 1282.067c-35.324 32.106-68.408 53.266-68.408 53.266s24.242-30.866 59.566-63c35.34-32.12 68.405-53.253 68.405-53.253s-24.221 30.893-59.563 62.987M1283.384 1141.067c-41.215 24.133-77.93 37.973-77.93 37.973s30.078-25.2 71.293-49.32c41.213-24.08 77.946-37.947 77.946-37.947s-30.113 25.2-71.309 49.294M1075.487 1262.68c-41.215 24.133-77.947 37.973-77.947 37.973s30.095-25.213 71.31-49.306c41.213-24.12 77.91-37.96 77.91-37.96s-30.077 25.2-71.273 49.293M1292.47 1164.453c-45.315 15.08-84.097 21.04-84.097 21.04s34.647-18.453 79.944-33.52c45.296-15.04 84.096-21.026 84.096-21.026s-34.64 18.453-79.944 33.506M1063.915 1240.453c-45.299 15.04-84.115 21.027-84.115 21.027s34.645-18.453 79.96-33.52c45.3-15.067 84.116-21.04 84.116-21.04s-34.664 18.453-79.961 33.533M1296.519 1189.227c-47.435 5.333-86.618 3.186-86.618 3.186s37.706-10.906 85.142-16.28c47.45-5.36 86.61-3.173 86.61-3.173s-37.68 10.88-85.134 16.267M1057.19 1216.267c-47.435 5.386-86.635 3.2-86.635 3.2s37.722-10.867 85.157-16.24c47.436-5.387 86.635-3.187 86.635-3.187s-37.723 10.867-85.158 16.227M1295.372 1214.267c-47.54-4.574-85.435-14.814-85.435-14.814s39.147-2.84 86.686 1.707c47.524 4.56 85.417 14.813 85.417 14.813s-39.147 2.84-86.668-1.706M1055.608 1191.253c-47.52-4.546-85.435-14.813-85.435-14.813s39.183-2.827 86.687 1.747c47.539 4.546 85.435 14.8 85.435 14.8s-39.147 2.826-86.687-1.734M1289.064 1238.52c-45.557-14.267-80.517-32.147-80.517-32.147s38.885 5.307 84.444 19.6c45.556 14.294 80.516 32.174 80.516 32.174s-38.907-5.347-84.443-19.627M1059.239 1166.413c-45.539-14.253-80.499-32.12-80.499-32.12s38.887 5.307 84.425 19.6c45.56 14.294 80.52 32.134 80.52 32.134s-38.905-5.294-84.446-19.614M1277.875 1260.96c-41.632-23.387-72.126-48.08-72.126-48.08s36.94 13.227 78.574 36.64c41.612 23.387 72.117 48.107 72.117 48.107s-36.985-13.254-78.565-36.667M1067.928 1142.893c-41.632-23.373-72.127-48.08-72.127-48.08s36.959 13.24 78.572 36.64c41.615 23.4 72.143 48.094 72.143 48.094s-36.975-13.24-78.588-36.654M1262.273 1280.627c-35.881-31.507-60.625-61.987-60.625-61.987s33.43 20.587 69.312 52.107c35.879 31.466 60.623 61.96 60.623 61.96s-33.431-20.6-69.31-52.08M1081.288 1121.707c-35.879-31.52-60.639-62-60.639-62s33.414 20.613 69.294 52.106c35.897 31.507 60.64 61.987 60.64 61.987s-33.431-20.613-69.295-52.093M1242.968 1296.613c-28.583-38.226-46.516-73.186-46.516-73.186s28.445 27.066 57.028 65.306c28.599 38.227 46.513 73.16 46.513 73.16s-28.478-27.066-57.025-65.28M1098.733 1103.693c-28.598-38.253-46.478-73.186-46.478-73.186s28.426 27.08 57.026 65.293c28.566 38.267 46.496 73.2 46.496 73.2s-28.442-27.08-57.044-65.307M1220.745 1308.253c-20.07-43.333-30.356-81.2-30.356-81.2s22.223 32.36 42.308 75.68c20.07 43.36 30.339 81.214 30.339 81.214s-22.223-32.387-42.29-75.694M1119.567 1089.68c-20.087-43.293-30.371-81.2-30.371-81.2s22.221 32.373 42.29 75.693c20.053 43.32 30.355 81.214 30.355 81.214s-22.222-32.374-42.274-75.707M1196.628 1315.067c-10.67-46.52-12.91-85.734-12.91-85.734s15.047 36.267 25.697 82.814c10.669 46.506 12.928 85.706 12.928 85.706s-15.064-36.24-25.715-82.786M1142.78 1080.28c-10.633-46.533-12.89-85.707-12.89-85.707s15.046 36.254 25.731 82.8c10.668 46.52 12.91 85.707 12.91 85.707s-15.064-36.267-25.751-82.8M1207.33 1196.2c0 17.267-13.987 31.24-31.205 31.24-17.237 0-31.224-13.973-31.224-31.24 0-17.253 13.987-31.213 31.224-31.213 17.218 0 31.206 13.96 31.206 31.213" fill="#2155ad"/><path d="M1290.357 1881.173v762.987h-279.241v-461.947c0-73.506-59.596-133.106-133.13-133.106-73.515 0-133.114 59.6-133.114 133.106v461.947H465.076v-762.987h825.281" fill="#cd8e67"/><path d="M727.792 1510.08c11.833-27.693 75.844-74.64 153.061-74.64 77.198 0 141.208 46.947 153.042 74.64H727.792" fill="#b77d5b"/><path d="M465.076 1797.16h825.281v-61.107H465.076v61.107" fill="#cd8e67"/><path d="M489.055 1736.053h777.306v-61.12H489.055v61.12" fill="#b77d5b"/><path d="M531.78 1674.933h698.128v-121.32H531.78v121.32" fill="#cd8e67"/><path d="M646.268 2644.16h32.23v-666.013h398.991v666.013h32.215v-698.253H646.268v698.253" fill="#fabc80"/><path d="M707.915 2644.16H733.7v-461.893c0-79.56 64.723-144.28 144.284-144.28 79.563 0 144.303 64.72 144.303 144.28v461.893h25.768v-461.893c0-93.774-76.295-170.067-170.07-170.067-93.774 0-170.071 76.293-170.071 170.067v461.893M1141.761 1996.24c0 26.853 21.772 48.627 48.618 48.627 26.878 0 48.65-21.774 48.65-48.627 0-26.867-21.772-48.64-48.65-48.64-26.846 0-48.618 21.773-48.618 48.64M504.83 1996.24c0 26.853 21.773 48.627 48.635 48.627 26.863 0 48.651-21.774 48.651-48.627 0-26.867-21.788-48.64-48.65-48.64-26.863 0-48.635 21.773-48.635 48.64" fill="#fabc80"/><path d="M465.076 1881.173h825.281v-56.026H465.076v56.026" fill="#b77d5b"/><path d="M1249.612 1881.173h18.175v-56.026h-18.175v56.026M1207.876 1881.173h18.156v-56.026h-18.156v56.026M1166.123 1881.173h18.174v-56.026h-18.174v56.026M1124.37 1881.173h18.191v-56.026h-18.192v56.026M1082.633 1881.173h18.175v-56.026h-18.175v56.026M1040.897 1881.173h18.175v-56.026h-18.175v56.026M999.145 1881.173h18.174v-56.026h-18.174v56.026M957.41 1881.173h18.173v-56.026h-18.174v56.026M915.656 1881.173h18.175v-56.026h-18.175v56.026M873.92 1881.173h18.175v-56.026H873.92v56.026M832.167 1881.173h18.174v-56.026h-18.174v56.026M790.43 1881.173h18.175v-56.026h-18.174v56.026M748.677 1881.173h18.175v-56.026h-18.175v56.026M706.941 1881.173h18.175v-56.026h-18.175v56.026M665.188 1881.173h18.176v-56.026h-18.176v56.026M623.452 1881.173h18.176v-56.026h-18.176v56.026M581.717 1881.173h18.158v-56.026h-18.158v56.026M539.983 1881.173h18.157v-56.026h-18.157v56.026M498.21 1881.173h18.194v-56.026h-18.193v56.026" fill="#cd8e67"/><path d="M465.076 1893.613h825.281v-12.44H465.076v12.44" fill="#642417"/><path d="M444.121 1825.147h867.172v-27.987H444.121v27.987" fill="#955646"/><path d="M748.677 1658.827h264.334v-89.107H748.677v89.107M1030.907 1614.28c0 26.853 21.789 48.613 48.634 48.613 26.862 0 48.632-21.76 48.632-48.613 0-26.867-21.77-48.64-48.632-48.64-26.845 0-48.634 21.773-48.634 48.64" fill="#c67f62"/><path d="M1048.492 1614.28c0 17.147 13.9 31.053 31.05 31.053 17.149 0 31.049-13.906 31.049-31.053s-13.9-31.067-31.05-31.067c-17.149 0-31.049 13.92-31.049 31.067" fill="#e09267"/><path d="M634.748 1610.2c0 26.853 21.753 48.627 48.616 48.627 26.879 0 48.633-21.774 48.633-48.627 0-26.867-21.754-48.64-48.633-48.64-26.863 0-48.616 21.773-48.616 48.64" fill="#c67f62"/><path d="M652.313 1610.2c0 17.147 13.902 31.053 31.051 31.053 17.168 0 31.068-13.906 31.068-31.053s-13.9-31.053-31.068-31.053c-17.15 0-31.05 13.906-31.05 31.053" fill="#e09267"/><path d="M693.84 1553.613h374.007v-43.533H693.84v43.533" fill="#955646"/><path d="M1132.917 2644.16h134.312v-562.4h-134.312v562.4" fill="#fabc80"/><path d="M1305.265 2264.52h-195.473v-12.893h195.473v12.893" fill="#955646"/><path d="M1317.341 2251.68h-207.549v-12.773h207.55v12.773" fill="#b77d5b"/><path d="M1290.357 2513.413v12.894h-180.565v-12.894h180.565" fill="#955646"/><path d="M1290.357 2500.707v12.773h-180.565v-12.773h180.565" fill="#b77d5b"/><path d="M1305.265 2128.773h-195.473v-12.893h195.473v12.893" fill="#955646"/><path d="M1317.341 2115.947h-207.549v-12.774h207.55v12.774" fill="#b77d5b"/><path d="M620.62 2644.16H486.308v-562.4H620.62v562.4" fill="#fabc80"/><path d="M448.275 2264.52h195.473v-12.893H448.275v12.893" fill="#955646"/><path d="M436.197 2251.68h207.551v-12.773h-207.55v12.773" fill="#b77d5b"/><path d="M463.183 2513.413v12.894h180.565v-12.894H463.183" fill="#955646"/><path d="M463.183 2500.707v12.773h180.565v-12.773H463.183" fill="#b77d5b"/><path d="M448.275 2128.773h195.473v-12.893H448.275v12.893" fill="#955646"/><path d="M436.197 2115.947h207.551v-12.774h-207.55v12.774" fill="#b77d5b"/><path d="M1251.085 2644.145l185.76-2299.127h75.561l185.753 2299.127h-447.074" fill="#f9ad79"/><path d="M1555.347 876.56l1.986 24.707h-165.44l2.014-24.707h161.44M1522.872 474.831l1.401 17.19h-99.305l1.374-17.19h96.53M1534.575 619.575l2.007 24.972h-123.936l1.247-24.972h120.682" fill="#93422d"/><path d="M1604.733 1487.773l2.6 32.227h-265.426l2.6-32.227h260.226" fill="#803d2a"/><path d="M1526.468 519.102l5.91 73.19h-115.527l5.94-73.19h103.677" fill="#e37951"/><path d="M1547.453 778.827l5.907 73.2h-157.48l5.907-73.2h145.666M1539.067 674.933l1.693 21.24h-132.293l1.72-21.24h128.88M1570.147 1059.813l12.213 151.107h-215.48l12.213-151.107h191.054M1334.28 1614.68l2.933-36.6h274.814l2.96 36.6H1334.28M1621.667 1697.32l2.786 34.64h-299.666l2.797-34.64h294.083M1293.88 2114.587l10.285-127.494h340.902l10.293 127.494h-361.48M1273.272 2369.6l3.14-38.96h396.428l3.133 38.96h-402.701" fill="#c47455"/><path d="M1480.899 345.018h-14.173l-5.506 129.794h22.293l-2.614-129.794m2.961 146.986h-23.374l-1.147 27.084h25.067l-.546-27.084m2.026 100.287h-29.653l-1.16 27.282h31.374l-.561-27.282m1.053 52.247h-32.92l-1.293 30.376h34.84l-.627-30.376" fill="#d88b65"/><path d="M1483.495 474.831h-22.288l-.737 17.19h23.372l-.347-17.19M1486.435 619.575h-31.37l-1.058 24.972h32.93l-.502-24.972" fill="#813728"/><path d="M1484.402 519.102h-25.073l-3.104 73.19h29.65l-1.473-73.19" fill="#c66447"/><path d="M1487.987 696.173h-36.174l-3.506 82.654h41.346l-1.666-82.654M1491.133 852.027H1445.2l-1.04 24.533h47.467l-.494-24.533m1 49.24h-49.026l-6.734 158.546h58.96l-3.2-158.546" fill="#d88b65"/><path d="M1491.627 876.56h-47.467l-1.053 24.707h49.026l-.506-24.707" fill="#813728"/><path d="M1498.387 1210.92h-68.427l-11.747 276.853h85.76l-5.586-276.853m6.24 309.08h-87.787l-2.467 58.08h91.427l-1.173-58.08" fill="#d88b65"/><path d="M1503.973 1487.773h-85.76L1416.84 1520h87.787l-.654-32.227" fill="#713325"/><path d="M1506.547 1614.68h-93.72l-3.52 82.64h98.906l-1.666-82.64" fill="#d88b65"/><path d="M1489.653 778.827h-41.346l-3.107 73.2h45.933l-1.48-73.2M1487.56 674.933h-34.84l-.907 21.24h36.174l-.427-21.24M1495.333 1059.813h-58.96l-6.413 151.107h68.427l-3.054-151.107M1505.8 1578.08h-91.427l-1.546 36.6h93.72l-.747-36.6" fill="#ab5f48"/><path d="M1508.92 1731.96h-101.08l-10.827 255.133h117.054l-5.147-255.133M1516.64 2114.587H1391.6l-9.173 216.053h138.586l-4.373-216.053" fill="#d88b65"/><path d="M1508.213 1697.32h-98.906l-1.467 34.64h101.08l-.707-34.64M1514.067 1987.093h-117.054l-5.413 127.494h125.04l-2.573-127.494" fill="#ab5f48"/><path d="M1521.8 2369.6h-141.027l-11.653 274.547h329.027-170.8L1521.8 2369.6" fill="#d88b65"/><path d="M1521.013 2330.64h-138.586l-1.654 38.96H1521.8l-.787-38.96" fill="#ab5f48"/><path d="M1512.406 345.018h-31.507l2.614 129.794h39.374l1.4 17.192h-40.427l.546 27.084h42.061l1.646 20.21-15.707-194.28m19.99 247.273h-46.51l.56 27.282h48.13l2.011 24.965h-49.648l.626 30.376h51.491l-6.66-82.623" fill="#be7357"/><path d="M1522.872 474.831h-39.377l.347 17.19h40.431l-1.401-17.19M1534.575 619.575h-48.14l.502 24.972h49.645l-2.007-24.972" fill="#722f25"/><path d="M1526.468 519.102h-42.066l1.474 73.19h46.502l-4.28-52.98-1.63-20.21" fill="#ae5541"/><path d="M1539.6 681.667l1.16 14.506h-52.773l1.666 82.654h57.8l-7.853-97.16M1551.133 824.4l2.227 27.627h-62.227l.494 24.533h63.72l1.986 24.707h-65.2l3.2 158.546h74.814l2.24 27.614-21.254-263.027" fill="#be7357"/><path d="M1555.347 876.56h-63.72l.506 24.707h65.2l-1.986-24.707" fill="#722f25"/><path d="M1582.36 1210.92h-83.973l5.586 276.853h100.747l-22.36-276.853m24.973 309.08h-102.706l1.173 58.08h106.227l-4.694-58.08" fill="#be7357"/><path d="M1604.72 1487.773h-100.747l.654 32.227h102.706l-2.613-32.227" fill="#632b21"/><path d="M1614.973 1614.68h-108.426l1.666 82.64h113.44l-6.68-82.64" fill="#be7357"/><path d="M1547.453 778.827h-57.8l1.48 73.2h62.227l-2.227-27.627-3.68-45.573M1539.053 674.933h-51.493l.427 21.24h52.773l-1.16-14.506-.547-6.734M1570.147 1059.813h-74.814l3.054 151.107h83.973l-9.973-123.493-2.24-27.614M1612.027 1578.08H1505.8l.747 36.6h108.426l-2.96-36.6" fill="#974f40"/><path d="M1624.04 1726.88l.413 5.08H1508.92l5.147 255.133h131l-21.027-260.213M1655.36 2114.587h-138.72l4.373 216.053h151.8l-17.453-216.053" fill="#be7357"/><path d="M1621.653 1697.32h-113.44l.707 34.64h115.533l-.413-5.08-2.387-29.56M1645.067 1987.093h-131l2.573 127.494h138.72l-10.293-127.494" fill="#974f40"/><path d="M1675.973 2369.6H1521.8l5.547 274.547h170.8L1675.96 2369.6" fill="#be7357"/><path d="M1672.813 2330.64h-151.8l.787 38.96h154.173l-3.16-38.96" fill="#974f40"/><path d="M1649.48 2029.4h-349.697l-.766 21.44h350.743l-.28-21.44" fill="#803d2a"/><path d="M1229.744 1880.92h494.136c4.293 111.733-74.4 148.48-74.4 148.48H1304.161s-78.712-36.747-74.417-148.48" fill="#93422d"/><path d="M1231.063 1914.227c-1.234-10.294-1.772-21.334-1.319-33.307h494.136c.453 11.973-.067 23.013-1.32 33.307h-491.497" fill="#d5835d"/><path d="M1284.024 1373.227h381.203c3.32 86.186-57.414 114.533-57.414 114.533h-266.4s-60.708-28.347-57.389-114.533" fill="#93422d"/><path d="M1285.032 1398.907c-.957-7.92-1.375-16.454-1.008-25.68h381.203c.346 9.226-.054 17.76-1.027 25.68h-379.168" fill="#d5835d"/><path d="M1413.904 475.205h121.433v-38.712h-121.433v38.712M1356.933 808.52h235.36c2.054 53.213-35.426 70.707-35.426 70.707H1392.4s-37.507-17.494-35.467-70.707" fill="#93422d"/><path d="M1357.573 824.387a101.169 101.169 0 01-.64-15.867h235.36c.214 5.693-.026 10.96-.626 15.867h-234.094" fill="#d5835d"/><path d="M1392.664 581.433H1556.58c1.42 37.056-24.671 49.247-24.671 49.247h-114.561s-26.12-12.191-24.685-49.247" fill="#93422d"/><path d="M1393.091 592.48c-.4-3.42-.565-7.09-.427-11.047h163.917c.152 3.958-.013 7.626-.441 11.046h-163.049" fill="#d5835d"/><path d="M1411.04 306.832H1538.188c1.094 28.738-19.146 38.194-19.146 38.194h-88.854s-20.239-9.456-19.146-38.194" fill="#93422d"/><path d="M1411.392 315.387c-.32-2.645-.453-34.073-.346-37.156h127.146c.121 3.083-.012 34.51-.345 37.156h-126.455" fill="#d5835d"/></svg>