<svg xmlns="http://www.w3.org/2000/svg" xmlns:xlink="http://www.w3.org/1999/xlink" xmlns:lucid="lucid" width="1870.87" height="1322.83"><g transform="translate(0 0)" lucid:page-tab-id="0_0"><path d="M0 0h1870.87v1322.83H0z" fill="#fff"/><path d="M1120 610c0 71.8-62.68 130-140 130s-140-58.2-140-130 62.68-130 140-130 140 58.2 140 130z" stroke="#5e5e5e" stroke-width="3" fill="#fff"/><use xlink:href="#a" transform="matrix(1,0,0,1,860,480) translate(51.03703703703705 136.22222222222223)"/><path d="M140 546c0-3.3 2.7-6 6-6h308c3.3 0 6 2.7 6 6v168c0 3.3-2.7 6-6 6H146c-3.3 0-6-2.7-6-6z" stroke="#5e5e5e" stroke-width="3" fill="#fff"/><use xlink:href="#b" transform="matrix(1,0,0,1,160,540) translate(64.94444444444447 96.22222222222223)"/><path d="M1540 546c0-3.3 2.7-6 6-6h288c3.3 0 6 2.7 6 6v168c0 3.3-2.7 6-6 6h-288c-3.3 0-6-2.7-6-6z" stroke="#5e5e5e" stroke-width="3" fill="#fff"/><use xlink:href="#c" transform="matrix(1,0,0,1,1545,545) translate(81.9567901234568 88.63888888888889)"/><path d="M462.5 630h359.15" stroke="#5e5e5e" stroke-width="2" fill="none"/><path d="M462.53 631h-1.03v-2h1.03z" fill="#5e5e5e"/><path d="M836.92 630l-14.27 4.64v-9.28z" stroke="#5e5e5e" stroke-width="2" fill="#5e5e5e"/><path d="M520 586c0-3.3 2.7-6 6-6h228c3.3 0 6 2.7 6 6v48c0 3.3-2.7 6-6 6H526c-3.3 0-6-2.7-6-6z" stroke="#000" stroke-opacity="0" stroke-width="3" fill="#fff" fill-opacity="0"/><use xlink:href="#d" transform="matrix(1,0,0,1,525,585) translate(64.44444444444443 30.27777777777778)"/><path d="M462.5 570.67h363.96" stroke="#5e5e5e" stroke-width="2" fill="none"/><path d="M462.53 571.67h-1.03v-2h1.03z" fill="#5e5e5e"/><path d="M841.72 570.67l-14.26 4.63v-9.27z" stroke="#5e5e5e" stroke-width="2" fill="#5e5e5e"/><path d="M520 526c0-3.3 2.7-6 6-6h228c3.3 0 6 2.7 6 6v48c0 3.3-2.7 6-6 6H526c-3.3 0-6-2.7-6-6z" stroke="#000" stroke-opacity="0" stroke-width="3" fill="#fff" fill-opacity="0"/><use xlink:href="#e" transform="matrix(1,0,0,1,525,525) translate(74.9074074074074 30.27777777777778)"/><path d="M462.5 696.9h392.82" stroke="#5e5e5e" stroke-width="2" fill="none"/><path d="M462.53 697.9h-1.03v-2h1.03z" fill="#5e5e5e"/><path d="M870.6 696.9l-14.28 4.62v-9.27z" stroke="#5e5e5e" stroke-width="2" fill="#5e5e5e"/><path d="M520 646c0-3.3 2.7-6 6-6h228c3.3 0 6 2.7 6 6v48c0 3.3-2.7 6-6 6H526c-3.3 0-6-2.7-6-6z" stroke="#000" stroke-opacity="0" stroke-width="3" fill="#fff" fill-opacity="0"/><use xlink:href="#f" transform="matrix(1,0,0,1,525,645) translate(36.6358024691358 30.27777777777778)"/><use xlink:href="#g" transform="matrix(1,0,0,1,525,645) translate(94.66049382716048 30.27777777777778)"/><path d="M1537.5 568.9h-404.58" stroke="#5e5e5e" stroke-width="2" fill="none"/><path d="M1538.5 569.9h-1.03v-2h1.03z" fill="#5e5e5e"/><path d="M1117.66 568.9l14.26-4.65v9.27z" stroke="#5e5e5e" stroke-width="2" fill="#5e5e5e"/><path d="M1210 526c0-3.3 2.7-6 6-6h228c3.3 0 6 2.7 6 6v48c0 3.3-2.7 6-6 6h-228c-3.3 0-6-2.7-6-6z" stroke="#000" stroke-opacity="0" stroke-width="3" fill="#fff" fill-opacity="0"/><use xlink:href="#h" transform="matrix(1,0,0,1,1215,525) translate(34.84567901234567 30.27777777777778)"/><use xlink:href="#i" transform="matrix(1,0,0,1,1215,525) translate(105.09259259259258 30.27777777777778)"/><path d="M1537.5 630h-399.12" stroke="#5e5e5e" stroke-width="2" fill="none"/><path d="M1538.5 631h-1.03v-2h1.03z" fill="#5e5e5e"/><path d="M1123.1 630l14.27-4.64v9.28z" stroke="#5e5e5e" stroke-width="2" fill="#5e5e5e"/><path d="M1200 586c0-3.3 2.7-6 6-6h228c3.3 0 6 2.7 6 6v48c0 3.3-2.7 6-6 6h-228c-3.3 0-6-2.7-6-6z" stroke="#000" stroke-opacity="0" stroke-width="3" fill="#fff" fill-opacity="0"/><use xlink:href="#d" transform="matrix(1,0,0,1,1205,585) translate(64.44444444444443 30.27777777777778)"/><path d="M1537.5 695.1h-431.16" stroke="#5e5e5e" stroke-width="2" fill="none"/><path d="M1538.5 696.1h-1.03v-2h1.03z" fill="#5e5e5e"/><path d="M1091.07 695.1l14.27-4.62v9.27z" stroke="#5e5e5e" stroke-width="2" fill="#5e5e5e"/><path d="M1210 646c0-3.3 2.7-6 6-6h228c3.3 0 6 2.7 6 6v48c0 3.3-2.7 6-6 6h-228c-3.3 0-6-2.7-6-6z" stroke="#000" stroke-opacity="0" stroke-width="3" fill="#fff" fill-opacity="0"/><g><use xlink:href="#j" transform="matrix(1,0,0,1,1215,645) translate(22.5 30.27777777777778)"/><use xlink:href="#g" transform="matrix(1,0,0,1,1215,645) translate(108.79629629629629 30.27777777777778)"/></g><defs><path fill="#333" d="M24-231v-30h32v30H24zM24 0v-190h32V0H24" id="k"/><path fill="#333" d="M117-194c89-4 53 116 60 194h-32v-121c0-31-8-49-39-48C34-167 62-67 57 0H25l-1-190h30c1 10-1 24 2 32 11-22 29-35 61-36" id="l"/><path fill="#333" d="M85-194c31 0 48 13 60 33l-1-100h32l1 261h-30c-2-10 0-23-3-31C134-8 116 4 85 4 32 4 16-35 15-94c0-66 23-100 70-100zm9 24c-40 0-46 34-46 75 0 40 6 74 45 74 42 0 51-32 51-76 0-42-9-74-50-73" id="m"/><path fill="#333" d="M195 0l-74-108L45 0H8l94-129-87-119h37l69 98 67-98h37l-84 118L233 0h-38" id="n"/><path fill="#333" d="M115-194c55 1 70 41 70 98S169 2 115 4C84 4 66-9 55-30l1 105H24l-1-265h31l2 30c10-21 28-34 59-34zm-8 174c40 0 45-34 45-75s-6-73-45-74c-42 0-51 32-51 76 0 43 10 73 51 73" id="o"/><path fill="#333" d="M24 0v-261h32V0H24" id="p"/><path fill="#333" d="M100-194c62-1 85 37 85 99 1 63-27 99-86 99S16-35 15-95c0-66 28-99 85-99zM99-20c44 1 53-31 53-75 0-43-8-75-51-75s-53 32-53 75 10 74 51 75" id="q"/><path fill="#333" d="M114-163C36-179 61-72 57 0H25l-1-190h30c1 12-1 29 2 39 6-27 23-49 58-41v29" id="r"/><path fill="#333" d="M100-194c63 0 86 42 84 106H49c0 40 14 67 53 68 26 1 43-12 49-29l28 8c-11 28-37 45-77 45C44 4 14-33 15-96c1-61 26-98 85-98zm52 81c6-60-76-77-97-28-3 7-6 17-6 28h103" id="s"/><g id="a"><use transform="matrix(0.08641975308641973,0,0,0.08641975308641973,0,0)" xlink:href="#k"/><use transform="matrix(0.08641975308641973,0,0,0.08641975308641973,6.827160493827159,0)" xlink:href="#l"/><use transform="matrix(0.08641975308641973,0,0,0.08641975308641973,24.111111111111107,0)" xlink:href="#m"/><use transform="matrix(0.08641975308641973,0,0,0.08641975308641973,41.39506172839505,0)" xlink:href="#k"/><use transform="matrix(0.08641975308641973,0,0,0.08641975308641973,48.222222222222214,0)" xlink:href="#n"/><use transform="matrix(0.08641975308641973,0,0,0.08641975308641973,68.96296296296295,0)" xlink:href="#o"/><use transform="matrix(0.08641975308641973,0,0,0.08641975308641973,86.2469135802469,0)" xlink:href="#p"/><use transform="matrix(0.08641975308641973,0,0,0.08641975308641973,93.07407407407405,0)" xlink:href="#q"/><use transform="matrix(0.08641975308641973,0,0,0.08641975308641973,110.35802469135803,0)" xlink:href="#r"/><use transform="matrix(0.08641975308641973,0,0,0.08641975308641973,120.64197530864197,0)" xlink:href="#s"/></g><path fill="#333" d="M212-179c-10-28-35-45-73-45-59 0-87 40-87 99 0 60 29 101 89 101 43 0 62-24 78-52l27 14C228-24 195 4 139 4 59 4 22-46 18-125c-6-104 99-153 187-111 19 9 31 26 39 46" id="t"/><path fill="#333" d="M84 4C-5 8 30-112 23-190h32v120c0 31 7 50 39 49 72-2 45-101 50-169h31l1 190h-30c-1-10 1-25-2-33-11 22-28 36-60 37" id="u"/><path fill="#333" d="M135-143c-3-34-86-38-87 0 15 53 115 12 119 90S17 21 10-45l28-5c4 36 97 45 98 0-10-56-113-15-118-90-4-57 82-63 122-42 12 7 21 19 24 35" id="v"/><path fill="#333" d="M59-47c-2 24 18 29 38 22v24C64 9 27 4 27-40v-127H5v-23h24l9-43h21v43h35v23H59v120" id="w"/><path fill="#333" d="M210-169c-67 3-38 105-44 169h-31v-121c0-29-5-50-35-48C34-165 62-65 56 0H25l-1-190h30c1 10-1 24 2 32 10-44 99-50 107 0 11-21 27-35 58-36 85-2 47 119 55 194h-31v-121c0-29-5-49-35-48" id="x"/><g id="b"><use transform="matrix(0.08641975308641973,0,0,0.08641975308641973,0,0)" xlink:href="#t"/><use transform="matrix(0.08641975308641973,0,0,0.08641975308641973,22.38271604938271,0)" xlink:href="#u"/><use transform="matrix(0.08641975308641973,0,0,0.08641975308641973,39.66666666666666,0)" xlink:href="#v"/><use transform="matrix(0.08641975308641973,0,0,0.08641975308641973,55.22222222222221,0)" xlink:href="#w"/><use transform="matrix(0.08641975308641973,0,0,0.08641975308641973,63.86419753086418,0)" xlink:href="#q"/><use transform="matrix(0.08641975308641973,0,0,0.08641975308641973,81.14814814814812,0)" xlink:href="#x"/><use transform="matrix(0.08641975308641973,0,0,0.08641975308641973,106.98765432098762,0)" xlink:href="#s"/><use transform="matrix(0.08641975308641973,0,0,0.08641975308641973,124.27160493827157,0)" xlink:href="#r"/><use transform="matrix(0.08641975308641973,0,0,0.08641975308641973,134.55555555555551,0)" xlink:href="#v"/></g><path fill="#333" d="M160-131c35 5 61 23 61 61C221 17 115-2 30 0v-248c76 3 177-17 177 60 0 33-19 50-47 57zm-97-11c50-1 110 9 110-42 0-47-63-36-110-37v79zm0 115c55-2 124 14 124-45 0-56-70-42-124-44v89" id="y"/><g id="c"><use transform="matrix(0.08641975308641973,0,0,0.08641975308641973,0,0)" xlink:href="#y"/><use transform="matrix(0.08641975308641973,0,0,0.08641975308641973,20.740740740740737,0)" xlink:href="#u"/><use transform="matrix(0.08641975308641973,0,0,0.08641975308641973,38.02469135802468,0)" xlink:href="#v"/><use transform="matrix(0.08641975308641973,0,0,0.08641975308641973,53.58024691358023,0)" xlink:href="#k"/><use transform="matrix(0.08641975308641973,0,0,0.08641975308641973,60.4074074074074,0)" xlink:href="#l"/><use transform="matrix(0.08641975308641973,0,0,0.08641975308641973,77.69135802469134,0)" xlink:href="#s"/><use transform="matrix(0.08641975308641973,0,0,0.08641975308641973,94.97530864197529,0)" xlink:href="#v"/><use transform="matrix(0.08641975308641973,0,0,0.08641975308641973,110.53086419753085,0)" xlink:href="#v"/></g><path fill="#333" d="M153-248C145-148 188 4 80 4 36 3 13-21 6-62l32-5c4 25 16 42 43 43 27 0 39-20 39-49v-147H72v-28h81" id="z"/><path fill="#333" d="M0 4l72-265h28L28 4H0" id="A"/><path fill="#333" d="M30 0v-248h33v221h125V0H30" id="B"/><path fill="#333" d="M177-190C167-65 218 103 67 71c-23-6-38-20-44-43l32-5c15 47 100 32 89-28v-30C133-14 115 1 83 1 29 1 15-40 15-95c0-56 16-97 71-98 29-1 48 16 59 35 1-10 0-23 2-32h30zM94-22c36 0 50-32 50-73 0-42-14-75-50-75-39 0-46 34-46 75s6 73 46 73" id="C"/><g id="d"><use transform="matrix(0.06172839506172839,0,0,0.06172839506172839,0,0)" xlink:href="#z"/><use transform="matrix(0.06172839506172839,0,0,0.06172839506172839,11.11111111111111,0)" xlink:href="#q"/><use transform="matrix(0.06172839506172839,0,0,0.06172839506172839,23.45679012345679,0)" xlink:href="#k"/><use transform="matrix(0.06172839506172839,0,0,0.06172839506172839,28.333333333333336,0)" xlink:href="#l"/><use transform="matrix(0.06172839506172839,0,0,0.06172839506172839,40.67901234567901,0)" xlink:href="#A"/><use transform="matrix(0.06172839506172839,0,0,0.06172839506172839,46.851851851851855,0)" xlink:href="#B"/><use transform="matrix(0.06172839506172839,0,0,0.06172839506172839,59.19753086419753,0)" xlink:href="#q"/><use transform="matrix(0.06172839506172839,0,0,0.06172839506172839,71.54320987654322,0)" xlink:href="#C"/><use transform="matrix(0.06172839506172839,0,0,0.06172839506172839,83.8888888888889,0)" xlink:href="#k"/><use transform="matrix(0.06172839506172839,0,0,0.06172839506172839,88.76543209876544,0)" xlink:href="#l"/></g><path fill="#333" d="M143 0L79-87 56-68V0H24v-261h32v163l83-92h37l-77 82L181 0h-38" id="D"/><g id="e"><use transform="matrix(0.06172839506172839,0,0,0.06172839506172839,0,0)" xlink:href="#y"/><use transform="matrix(0.06172839506172839,0,0,0.06172839506172839,14.814814814814813,0)" xlink:href="#q"/><use transform="matrix(0.06172839506172839,0,0,0.06172839506172839,27.160493827160494,0)" xlink:href="#q"/><use transform="matrix(0.06172839506172839,0,0,0.06172839506172839,39.50617283950617,0)" xlink:href="#D"/><use transform="matrix(0.06172839506172839,0,0,0.06172839506172839,50.61728395061728,0)" xlink:href="#k"/><use transform="matrix(0.06172839506172839,0,0,0.06172839506172839,55.49382716049382,0)" xlink:href="#l"/><use transform="matrix(0.06172839506172839,0,0,0.06172839506172839,67.8395061728395,0)" xlink:href="#C"/></g><path fill="#333" d="M185-189c-5-48-123-54-124 2 14 75 158 14 163 119 3 78-121 87-175 55-17-10-28-26-33-46l33-7c5 56 141 63 141-1 0-78-155-14-162-118-5-82 145-84 179-34 5 7 8 16 11 25" id="E"/><g id="f"><use transform="matrix(0.06172839506172839,0,0,0.06172839506172839,0,0)" xlink:href="#E"/><use transform="matrix(0.06172839506172839,0,0,0.06172839506172839,14.814814814814813,0)" xlink:href="#s"/><use transform="matrix(0.06172839506172839,0,0,0.06172839506172839,27.160493827160494,0)" xlink:href="#l"/><use transform="matrix(0.06172839506172839,0,0,0.06172839506172839,39.50617283950617,0)" xlink:href="#m"/></g><path fill="#333" d="M30-248c87 1 191-15 191 75 0 78-77 80-158 76V0H30v-248zm33 125c57 0 124 11 124-50 0-59-68-47-124-48v98" id="F"/><path fill="#333" d="M141-36C126-15 110 5 73 4 37 3 15-17 15-53c-1-64 63-63 125-63 3-35-9-54-41-54-24 1-41 7-42 31l-33-3c5-37 33-52 76-52 45 0 72 20 72 64v82c-1 20 7 32 28 27v20c-31 9-61-2-59-35zM48-53c0 20 12 33 32 33 41-3 63-29 60-74-43 2-92-5-92 41" id="G"/><path fill="#333" d="M179-190L93 31C79 59 56 82 12 73V49c39 6 53-20 64-50L1-190h34L92-34l54-156h33" id="H"/><g id="g"><use transform="matrix(0.06172839506172839,0,0,0.06172839506172839,0,0)" xlink:href="#F"/><use transform="matrix(0.06172839506172839,0,0,0.06172839506172839,14.814814814814813,0)" xlink:href="#G"/><use transform="matrix(0.06172839506172839,0,0,0.06172839506172839,27.160493827160494,0)" xlink:href="#H"/><use transform="matrix(0.06172839506172839,0,0,0.06172839506172839,38.27160493827161,0)" xlink:href="#x"/><use transform="matrix(0.06172839506172839,0,0,0.06172839506172839,56.72839506172839,0)" xlink:href="#s"/><use transform="matrix(0.06172839506172839,0,0,0.06172839506172839,69.07407407407408,0)" xlink:href="#l"/><use transform="matrix(0.06172839506172839,0,0,0.06172839506172839,81.41975308641976,0)" xlink:href="#w"/><use transform="matrix(0.06172839506172839,0,0,0.06172839506172839,87.5925925925926,0)" xlink:href="#v"/></g><g id="h"><use transform="matrix(0.06172839506172839,0,0,0.06172839506172839,0,0)" xlink:href="#B"/><use transform="matrix(0.06172839506172839,0,0,0.06172839506172839,12.345679012345679,0)" xlink:href="#k"/><use transform="matrix(0.06172839506172839,0,0,0.06172839506172839,17.22222222222222,0)" xlink:href="#v"/><use transform="matrix(0.06172839506172839,0,0,0.06172839506172839,28.333333333333332,0)" xlink:href="#w"/><use transform="matrix(0.06172839506172839,0,0,0.06172839506172839,34.50617283950617,0)" xlink:href="#k"/><use transform="matrix(0.06172839506172839,0,0,0.06172839506172839,39.382716049382715,0)" xlink:href="#l"/><use transform="matrix(0.06172839506172839,0,0,0.06172839506172839,51.72839506172839,0)" xlink:href="#C"/></g><g id="i"><use transform="matrix(0.06172839506172839,0,0,0.06172839506172839,0,0)" xlink:href="#y"/><use transform="matrix(0.06172839506172839,0,0,0.06172839506172839,14.814814814814813,0)" xlink:href="#u"/><use transform="matrix(0.06172839506172839,0,0,0.06172839506172839,27.160493827160494,0)" xlink:href="#v"/><use transform="matrix(0.06172839506172839,0,0,0.06172839506172839,38.27160493827161,0)" xlink:href="#k"/><use transform="matrix(0.06172839506172839,0,0,0.06172839506172839,43.14814814814815,0)" xlink:href="#l"/><use transform="matrix(0.06172839506172839,0,0,0.06172839506172839,55.49382716049383,0)" xlink:href="#s"/><use transform="matrix(0.06172839506172839,0,0,0.06172839506172839,67.8395061728395,0)" xlink:href="#v"/><use transform="matrix(0.06172839506172839,0,0,0.06172839506172839,78.95061728395062,0)" xlink:href="#v"/></g><path fill="#333" d="M233-177c-1 41-23 64-60 70L243 0h-38l-65-103H63V0H30v-248c88 3 205-21 203 71zM63-129c60-2 137 13 137-47 0-61-80-42-137-45v92" id="I"/><path fill="#333" d="M96-169c-40 0-48 33-48 73s9 75 48 75c24 0 41-14 43-38l32 2c-6 37-31 61-74 61-59 0-76-41-82-99-10-93 101-131 147-64 4 7 5 14 7 22l-32 3c-4-21-16-35-41-35" id="J"/><path fill="#333" d="M108 0H70L1-190h34L89-25l56-165h34" id="K"/><g id="j"><use transform="matrix(0.06172839506172839,0,0,0.06172839506172839,0,0)" xlink:href="#I"/><use transform="matrix(0.06172839506172839,0,0,0.06172839506172839,15.987654320987653,0)" xlink:href="#s"/><use transform="matrix(0.06172839506172839,0,0,0.06172839506172839,28.333333333333332,0)" xlink:href="#J"/><use transform="matrix(0.06172839506172839,0,0,0.06172839506172839,39.44444444444444,0)" xlink:href="#k"/><use transform="matrix(0.06172839506172839,0,0,0.06172839506172839,44.32098765432099,0)" xlink:href="#s"/><use transform="matrix(0.06172839506172839,0,0,0.06172839506172839,56.666666666666664,0)" xlink:href="#K"/><use transform="matrix(0.06172839506172839,0,0,0.06172839506172839,67.77777777777777,0)" xlink:href="#s"/></g></defs></g></svg>